<?xml version="1.0" encoding="utf-8"?>
<!-- Generator: Adobe Illustrator 16.0.0, SVG Export Plug-In . SVG Version: 6.00 Build 0)  -->
<!DOCTYPE svg PUBLIC "-//W3C//DTD SVG 1.1//EN" "http://www.w3.org/Graphics/SVG/1.1/DTD/svg11.dtd">
<svg version="1.1" id="Layer_1" xmlns="http://www.w3.org/2000/svg" xmlns:xlink="http://www.w3.org/1999/xlink" x="0px" y="0px"
	 width="841.89px" height="372.367px" viewBox="0 0 841.89 372.367" enable-background="new 0 0 841.89 372.367"
	 xml:space="preserve">
<path fill-rule="evenodd" clip-rule="evenodd" fill="#37474F" d="M661.81,278.824c0,6.627-5.372,12-12,12h-64.833
	c-6.627,0-12-5.373-12-12v-64.833c0-6.627,5.373-12,12-12h64.833c6.628,0,12,5.373,12,12V278.824z"/>
<path fill-rule="evenodd" clip-rule="evenodd" fill="#240000" d="M193.348,292.401c-8.456-4.114-11.863-11.079-11.783-20.246
	c0.119-13.651-0.152-27.308,0.069-40.957c0.241-14.833,6.662-21.232,21.507-21.463c13.65-0.211,27.309-0.229,40.957,0.017
	c14.431,0.259,20.888,6.882,21.082,21.376c0.167,12.485-0.213,24.981,0.142,37.46c0.282,9.927-1.889,18.371-10.974,23.813
	C234.014,292.401,213.681,292.401,193.348,292.401z"/>
<path fill-rule="evenodd" clip-rule="evenodd" fill="#1696F5" d="M660.348,88.401c-13.765,23.885-27.525,47.771-41.305,71.646
	c-0.489,0.848-1.152,1.595-1.734,2.389c-1.71-2.278-0.44-4.496,0.25-6.645c3.883-12.083,6.844-24.373,8.572-36.954
	c1.141-8.298,1.237-16.592-0.051-24.882c-0.259-1.663-0.321-3.313,0.112-4.955l-0.1-0.346l0.255-0.254
	C637.681,88.401,649.015,88.401,660.348,88.401z"/>
<path fill-rule="evenodd" clip-rule="evenodd" fill="#ADDCFE" d="M593.285,127.474c-7.646-13.024-15.291-26.048-22.938-39.072
	c13.334,0,26.666,0,40,0c0.053,2.307-1.975,2.398-3.368,3.013c-8.681,3.827-12.849,10.663-13.224,19.919
	c-0.169,4.137-0.289,8.298,0.299,12.431C594.24,125.076,594.449,126.426,593.285,127.474z"/>
<path fill-rule="evenodd" clip-rule="evenodd" fill="#7BC5FE" d="M593.285,127.474c-1.068-7.72-2.018-15.465,0.215-23.123
	c2.145-7.352,6.948-12.255,14.265-14.647c0.922-0.301,2.006-0.307,2.583-1.302c2.333,0,4.667,0,7,0
	c-4.478,9.827-10.59,18.74-15.779,28.169c-2.001,3.636-4.125,7.203-6.229,10.781C594.771,128.319,594.107,129.811,593.285,127.474z"
	/>
<path fill-rule="evenodd" clip-rule="evenodd" fill="#3474AA" d="M354.348,88.401c0.543,1.656,2.615,0.529,3.349,1.838
	c-2.059,3.459-4.875,6.273-8.056,8.622c-2.759,2.037-4.221,4.337-3.371,7.792c-2.314-0.106-4.628-0.214-6.943-0.32
	c-2.378-0.96-4.881-0.091-7.277-0.487c-1.619-0.268-4.111,1.218-4.683-1.097c-0.444-1.796,1.418-3.141,3.189-3.88
	c0.468-0.125,0.953-0.174,1.438-0.149c1.467,0.177,2.96,0.85,4.382-0.182c0.468-0.41,0.878-0.867,1.202-1.4
	c-0.25-4.403,0.813-8.216,4.771-10.736C346.348,88.401,350.348,88.401,354.348,88.401z"/>
<path fill-rule="evenodd" clip-rule="evenodd" fill="#3679B1" d="M332.554,101.104c-2.022,0.489-3.511,1.636-4.585,3.849
	c3.757,1.394,7.882-0.767,11.358,1.381c-1.65,0.072-3.414,0.551-4.924,0.126c-2.662-0.747-6.802,2.567-7.927-2.116
	c-1.708-7.106,0.332-11.388,5.628-13.771c1.445-0.651,3.293-0.548,4.244-2.17c2,0,4,0,6,0c-3.001,3.426-3.152,7.833-4.114,11.96
	c-0.52-0.428-0.783-1.016-1.045-1.613c-0.526-1.198-1.034-2.64-2.696-2.243c-1.628,0.389-1.436,1.936-1.51,3.222
	C332.954,100.218,332.813,100.681,332.554,101.104z"/>
<path fill-rule="evenodd" clip-rule="evenodd" fill="#001E36" d="M481.254,205.401c8.986,0,17.973-0.048,26.957,0.014
	c9.582,0.065,16.047,6.309,16.104,15.81c0.107,17.805,0.106,35.611-0.001,53.416c-0.057,9.317-6.439,15.697-15.644,15.736
	c-18.47,0.078-36.942,0.069-55.413,0.005c-9.262-0.033-15.789-6.312-15.863-15.531c-0.144-17.971-0.148-35.943,0.003-53.914
	c0.077-9.167,6.665-15.441,15.9-15.518C462.616,205.342,471.936,205.402,481.254,205.401z"/>
<path fill-rule="evenodd" clip-rule="evenodd" fill="#470137" d="M385.254,290.162c-4.906,1.308-9.921,0.96-14.909,0.965
	c-14.164,0.015-28.329-0.029-42.492,0.03c-3.518,0.015-6.985-0.187-10.408-1.008c-6.572-3.686-9.428-9.152-9.288-16.812
	c0.299-16.312,0.072-32.633,0.098-48.95c0.019-11.584,5.951-17.614,17.384-17.639c17.15-0.036,34.3-0.036,51.449,0
	c11.294,0.024,17.299,5.982,17.318,17.152c0.029,16.483-0.218,32.972,0.108,49.449C394.668,281.031,391.813,286.469,385.254,290.162
	z"/>
<path fill-rule="evenodd" clip-rule="evenodd" fill="#F3F3F3" d="M468.339,91.396c12.183-4.093,23.241-2.056,33.512,5.667
	c3.024,2.274,6.462,3.955,8.496,7.339c0.471,3.544,3.845,5.41,4.921,8.694c1.381,4.21,2.916,8.354,3.534,12.771
	c1.13,13.58-2.815,25.258-13.017,34.554c-5.005,4.561-10.768,7.702-17.47,8.992c-12.938,2.652-24.713,0.452-34.901-8.36
	c-8.835-6.901-12.99-16.317-14.547-27.126c-0.004-2.582-0.014-5.164,0.005-7.743c0.977-7.979,4.657-14.91,8.463-21.793
	c1.3-2.035,2.962-3.708,5.003-5.002C457.293,95.968,462.846,93.742,468.339,91.396z"/>
<path fill-rule="evenodd" clip-rule="evenodd" fill="#F6DE1E" d="M236.918,158.701c-16.041,9.86-35.485,6.301-47.225-8.645
	c-11.146-14.189-9.866-35.58,2.898-48.41c13.215-13.284,33.589-14.468,48.079-2.792c14.48,11.668,17.903,32.179,8.012,48.006
	c-3.163-3.896-6.966-6.891-11.649-8.84c-2.458-1.022-4.333-2.928-3.307-5.873c1.068-3.065,3.57-3.007,6.208-2.132
	c1.242,0.412,2.865,1.15,3.519-0.462c0.751-1.854-1.054-2.564-2.369-3.179c-4.146-1.935-9.421-0.446-11.474,3.153
	c-2.305,4.042-0.837,8.783,3.566,11.549c1.84,1.156,3.955,1.753,5.82,2.849c2.432,1.428,4.467,3.166,3.301,6.386
	c-0.938,2.591-4.662,3.796-7.718,2.661c-0.47-0.175-0.885-0.455-1.318-0.703c-1.505-0.861-3.318-2.911-4.706-0.764
	c-1.587,2.456,1.386,3.132,2.761,4.322C232.948,157.239,235.637,156.6,236.918,158.701z"/>
<path fill-rule="evenodd" clip-rule="evenodd" fill="#1867BF" d="M626.192,89.001c3.304,9.188,2.589,18.686,1.665,28.064
	c-1.533,15.551-6.35,30.402-10.548,45.37c-0.538,1.128-0.54,2.923-2.102,2.951c-1.195,0.021-1.461-1.582-2.016-2.537
	c-4.485-7.72-8.929-15.465-13.428-23.176c-0.946-1.622-1.577-2.936-0.39-4.937C608.399,119.543,617.272,104.258,626.192,89.001z"/>
<path fill-rule="evenodd" clip-rule="evenodd" fill="#3471A5" d="M323.343,148.11c-9.097,1.451-11.722,0.479-15.045-5.572
	c-1.222-2.364-0.08-4.093,1.479-5.77c6.676-7.181,14.188-13.497,21.13-20.408c2.185-2.175,3.591-5.306,6.816-6.396
	c2.498-0.098,4.997-0.028,7.492-0.043c0.503-0.013,0.958,0.135,1.361,0.438c0.876,1.878-0.286,3.17-1.425,4.312
	c-4.263,4.271-8.296,8.771-12.781,12.82c-3.533,1.312-6.271,3.551-8.049,6.907C322.92,138.892,324.746,143.616,323.343,148.11z"/>
<path fill-rule="evenodd" clip-rule="evenodd" fill="#020200" d="M236.918,158.701c-3.505-0.482-6.936-1.232-9.405-4.024
	c-0.949-1.073-3.302-2.29-1.099-3.924c1.425-1.057,3.155-3.623,5.467-0.95c1.636,1.891,3.689,2.798,6.209,2.491
	c1.776-0.217,3.241-0.936,3.667-2.835c0.392-1.748-0.678-2.909-2.028-3.643c-2.334-1.27-4.829-2.244-7.158-3.521
	c-3.884-2.129-5.662-5.469-5.302-9.922c0.301-3.725,2.313-6.28,5.706-7.478c3.96-1.397,7.926-1.226,11.244,1.73
	c0.954,0.849,3.079,1.987,1.479,3.494c-1.292,1.218-2.833,3.818-5.389,1.554c-0.249-0.22-0.472-0.493-0.758-0.645
	c-1.947-1.03-4.002-1.412-5.149,0.894c-1.124,2.257,0.283,3.771,2.304,4.733c1.802,0.857,3.65,1.623,5.431,2.521
	c3.246,1.639,5.737,3.958,6.542,7.688C245.885,151.925,241.981,155.889,236.918,158.701z"/>
<path fill-rule="evenodd" clip-rule="evenodd" fill="#346EA1" d="M332.37,127.49c2.104-5.149,6.932-7.939,10.339-11.96
	c1.357-1.603,3.543-2.627,3.642-5.127c4.645-5.198,9.83-9.859,14.746-14.788c0.802-0.804,1.736-1.606,3.073-1.179
	c3.838,8.235,2.061,16.76,1.298,25.231c-1.665-1.401-1.393-3.347-1.472-5.188c-0.069-2.282,0.447-4.589-0.458-7.983
	c-6.159,6.075-11.843,11.776-17.989,18.012c3.043,1.054,5.477,0.485,7.854,0.54c2.133,0.065,4.384-0.394,6.102,1.419
	c-4.781,2.047-9.794,0.66-14.692,0.938C340.676,127.642,336.518,127.478,332.37,127.49z"/>
<path fill-rule="evenodd" clip-rule="evenodd" fill="#FED531" d="M356.348,130.398c5.429-0.56,9.979-2.45,12.114-7.998
	c0.343-0.641,0.623-1.334,1.378-1.626c1.002-0.256,1.932-0.188,2.697,0.605c-0.249,3.472-2.802,5.454-4.994,7.653
	c-5.564,5.584-10.844,11.435-16.692,17.256c2.159,0.037,3.795-0.265,5.452-0.224c2.438-0.06,4.869-0.136,7.305-0.084
	c2.633-0.019,5.263-0.14,7.896,0.001c2.125,0.056,4.359-0.33,6.033,1.513c-8.321,1.741-16.737,0.328-25.097,0.752
	c-1.318,0.066-2.643,0.04-3.964,0.012c-2.313-0.049-2.251,1.349-1.852,2.973c-3.784,5.966-9.428,10.18-14.275,15.145
	c-1.691-0.551-3.183-1.357-3.967-3.078c-1.333-2.163-0.278-3.864,1.231-5.274C338.989,149.262,346.777,138.967,356.348,130.398z"/>
<path fill-rule="evenodd" clip-rule="evenodd" fill="#FED029" d="M363.388,147.333c-2.667,0.002-5.334,0.004-8.002,0.007
	c-0.813-2.112,0.536-3.536,1.771-4.798c7.757-7.929,15.631-15.74,23.018-24.028c1.214-1.363,2.784-3.955,5.178-1.113
	c2.425,5.945,2.696,12.019,1.089,18.205c-1.17-0.88-1.251-2.183-1.361-3.474c-0.013-2.479,0.026-4.962,0.264-7.462
	C377.87,132.109,371.467,140.532,363.388,147.333z"/>
<path fill-rule="evenodd" clip-rule="evenodd" fill="#3473A9" d="M337.35,110.412c-7.188,10.173-17.523,17.255-25.849,26.313
	c-1.559,1.695-3.541,3.098-3.204,5.813c-1.654-1.949-2.227-4.23-2.066-6.736c-0.575-1.686-0.592-3.255,0.84-4.585
	c7.309-6.79,14.102-14.102,21.269-21.035c0.222-0.214,0.608-0.228,0.949-0.263C331.975,110.157,334.717,109.389,337.35,110.412z"/>
<path fill-rule="evenodd" clip-rule="evenodd" fill="#FED22D" d="M385.353,117.4c-4.512-0.589-6.113,3.429-8.137,5.886
	c-5.579,6.776-12.125,12.554-18.152,18.855c-1.502,1.57-2.867,3.172-3.679,5.198c-1.643,0-3.285,0-6.289,0
	c7.29-9.934,16.679-16.738,23.25-25.938c2.554-3.929,5.042-7.932,10.107-9.056C384.188,113.591,385.106,115.303,385.353,117.4z"/>
<path fill-rule="evenodd" clip-rule="evenodd" fill="#FED734" d="M356.348,130.398c0.032,1.491-0.938,2.411-1.871,3.381
	c-7.712,8.029-15.411,16.072-23.117,24.107c-1.477,1.54-3.403,2.827-2.977,5.412c-0.795-0.389-1.001-1.098-1.035-1.9
	c-1.018-2.267-0.25-4.656-0.486-6.973c1.917-3.896,5.049-6.806,8.071-9.79c4.804-4.746,9.417-9.687,14.415-14.235
	C351.681,130.399,354.014,130.399,356.348,130.398z"/>
<path fill-rule="evenodd" clip-rule="evenodd" fill="#3476AD" d="M328.35,110.411c-0.317,3.013-2.941,4.313-4.737,6.156
	c-5.102,5.236-10.284,10.402-15.627,15.391c-1.265,1.181-1.693,2.32-1.755,3.842c-1.393-4.481-1.258-8.978-0.121-13.483
	c2.43-2.494,5.282-4.67,7.288-7.46C317.354,109.354,322.563,109.169,328.35,110.411z"/>
<path fill-rule="evenodd" clip-rule="evenodd" fill="#3471A5" d="M364.169,94.437c-4.222,4.103-8.48,8.168-12.646,12.328
	c-1.532,1.53-3.18,2.807-5.173,3.639l-0.008-0.007c-0.346-0.229-0.466-0.467-0.362-0.713c0.105-0.249,0.213-0.374,0.325-0.374
	c-0.012-0.886-0.024-1.771-0.036-2.656c-2.776-1.462-3.012-3.401-0.784-5.466c4.009-3.715,8.134-7.306,12.21-10.948
	C360.453,90.715,362.85,91.745,364.169,94.437z"/>
<path fill-rule="evenodd" clip-rule="evenodd" fill="#FECB23" d="M365.365,162.447c-2.769,6.1-8.767,4.89-13.714,6.06
	c-1.843,0.702-3.758,0.267-5.639,0.354c-2.136-0.964-1.245-2.504-0.389-3.577c2.011-2.52,3.874-5.311,7.293-6.207
	c0.316,0.076,0.625,0.186,0.879,0.381c1.469,1.125,2.826,3.364,4.907,1.328c1.81-1.771-0.357-3.202-0.985-4.739
	c-0.624-1.968,0.276-3.405,1.628-4.685c2,0.028,4,0.056,6,0.083C366.122,155.111,366.099,158.779,365.365,162.447z"/>
<path fill-rule="evenodd" clip-rule="evenodd" fill="#FED938" d="M349.348,130.4c-0.304,3.02-2.989,4.254-4.717,6.172
	c-4.884,5.42-10.728,9.931-15.073,15.88c-0.406,0.556-1.446,0.648-2.192,0.956c-1.264-4.823-0.776-8.823,3.663-12.251
	c3.904-3.015,6.246-7.761,10.319-10.761C344.014,130.397,346.681,130.398,349.348,130.4z"/>
<path fill-rule="evenodd" clip-rule="evenodd" fill="#FEDD3D" d="M341.348,130.396c-2.082,4.735-5.653,8.559-9.453,11.607
	c-4.063,3.262-5.07,6.789-4.529,11.404c-0.006,2.663-0.011,5.326-0.017,7.99c-1.801-8.098-1.733-16.318-0.081-24.31
	C328.46,131.313,332.475,129.888,341.348,130.396z"/>
<path fill-rule="evenodd" clip-rule="evenodd" fill="#FECB20" d="M386.331,131.409c0.037,1.398,0.074,2.797,0.111,4.196
	c-0.638,5.708-2.833,10.251-8.905,11.89c-2.057-0.057-4.113-0.113-6.17-0.169c-0.653-0.688-0.714-1.53-0.241-2.246
	c3.363-5.081,7.386-9.585,12.099-13.449C384.127,130.891,385.223,130.438,386.331,131.409z"/>
<path fill-rule="evenodd" clip-rule="evenodd" fill="#FED531" d="M382.455,112.346c-3.369,3.019-6.738,6.037-10.107,9.056
	c-0.986,0-1.973,0-2.959,0c-0.883-3.992-0.823-7.988-0.03-11.985l0.004-0.004c2.69-0.825,5.388-0.734,8.09-0.063
	C379.592,109.561,381.312,110.472,382.455,112.346z"/>
<path fill-rule="evenodd" clip-rule="evenodd" fill="#FED22C" d="M332.35,166.376c3.438-6.292,9.106-10.482,14.275-15.145
	c1.241,0.044,2.482,0.088,3.723,0.132c1.493,2.672-0.941,3.792-2.167,5.333c-3.036,3.813-7.081,6.854-8.849,11.634
	C336.722,168.688,334.512,167.617,332.35,166.376z"/>
<path fill-rule="evenodd" clip-rule="evenodd" fill="#3478B1" d="M346.306,109.31c0.012,0.362,0.025,0.725,0.038,1.087
	c-2.998,0.005-5.996,0.01-8.993,0.016c-3,0-6-0.001-9-0.001c-6.272-1.275-10.805,1.197-14.756,6.044
	c-1.941,2.381-3.696,5.591-7.484,5.861c1.111-8.986,5.416-12.839,14.359-12.876C329.081,109.404,337.693,109.354,346.306,109.31z"/>
<path fill-rule="evenodd" clip-rule="evenodd" fill="#346A99" d="M365.303,113.404c0.055,2.088,0.109,4.176,0.164,6.264
	c-0.331,3.72-2.423,5.895-5.964,6.799c-2.386-0.022-4.771-0.044-7.157-0.065c-0.316-0.384-0.708-0.916-0.492-1.305
	c2.899-5.194,6.984-9.238,12.145-12.178C364.39,112.697,364.921,113.085,365.303,113.404z"/>
<path fill-rule="evenodd" clip-rule="evenodd" fill="#EBEBEC" d="M488.35,168.403c15.064-3.264,25.391-14.568,29.02-29.219
	c1.133-4.571,0.934-9.17,0.979-13.783c0.332-0.349,0.665-0.348,0.996,0.002c0.762,10.456-0.202,20.542-7.072,29.09
	c-5.547,6.901-11.745,13.028-20.914,14.914C490.131,169.742,488.633,170.893,488.35,168.403z"/>
<path fill-rule="evenodd" clip-rule="evenodd" fill="#FECF2A" d="M339.332,168.33c-2.089-1.438-0.825-2.397,0.277-3.775
	c3.542-4.429,8.259-7.905,10.739-13.191c1.667-0.002,3.334-0.004,5-0.006c1.483,2.403-0.546,3.667-1.808,4.97
	c-3.992,4.125-7.995,8.243-12.195,12.16C340.674,168.435,340.003,168.383,339.332,168.33z"/>
<path fill-rule="evenodd" clip-rule="evenodd" fill="#EEEFF0" d="M488.35,168.403c0.721,1.179,1.908,0.958,3.007,1.004
	c-14.518,4.712-27.396,1.437-39.009-8.006c-0.258-0.924,0.056-1.278,1-1.001C463.708,168.785,475.423,171.246,488.35,168.403z"/>
<path fill-rule="evenodd" clip-rule="evenodd" fill="#FECE29" d="M341.345,168.487c0.648-3.783,4.262-5.197,6.294-7.875
	c2.429-3.201,6.605-4.948,7.708-9.255c1.333,0.001,2.666,0.003,3.999,0.005c-0.331,1.619-0.662,3.238-0.993,4.857
	c-1.383,1.621-3.415,2.188-5.18,3.188c-2.796,2.797-6.521,4.781-7.797,8.909c-1.074,0.892-2.212,0.618-3.36,0.188l-0.339,0.129
	L341.345,168.487z"/>
<path fill-rule="evenodd" clip-rule="evenodd" fill="#F0F0F1" d="M453.348,160.4c-0.333,0.334-0.666,0.667-1,1.001
	c-8.398-7.066-12.854-16.175-13.993-27.003c0.332-0.439,0.663-0.462,0.993,0.002c1.461,3.322,1.849,6.951,3.012,10.392
	C444.523,151.195,449.186,155.562,453.348,160.4z"/>
<path fill-rule="evenodd" clip-rule="evenodd" fill="#EFF0F1" d="M519.344,125.403c-0.332-0.002-0.664-0.002-0.996-0.002
	c-2.415-6.821-3.68-14.146-8.674-19.854c-0.092-0.104,0.436-0.751,0.673-1.145C515.476,110.49,518.965,117.28,519.344,125.403z"/>
<path fill-rule="evenodd" clip-rule="evenodd" fill="#EFF0F1" d="M447.335,104.391c0.243,0.39,0.778,1.023,0.686,1.136
	c-4.81,5.795-6.438,12.967-8.672,19.875c-0.33,0.485-0.662,0.486-0.995,0.003C439.405,117.569,442.178,110.471,447.335,104.391z"/>
<path fill-rule="evenodd" clip-rule="evenodd" fill="#EFF0F1" d="M468.339,91.396c0.163,0.02,0.364-0.014,0.481,0.071
	c0.225,0.161,0.4,0.39,0.598,0.591c-1.801,0.676-3.634,1.274-5.393,2.043c-3.273,1.432-6.902,2.236-9.268,5.31
	c-0.673,0.876-1.623,1.097-2.42-0.021C456.785,94.95,462.153,92.355,468.339,91.396z"/>
<path fill-rule="evenodd" clip-rule="evenodd" fill="#3871A3" d="M323.343,148.11c0.484-4.56-1.086-9.266,0.979-13.713
	C323.443,138.929,324.793,143.62,323.343,148.11z"/>
<path fill-rule="evenodd" clip-rule="evenodd" fill="#FEDC4C" d="M369.358,109.416c0.01,3.995,0.02,7.99,0.029,11.985
	c-0.308,0.333-0.617,0.666-0.926,0.999C368.998,118.089,367.582,113.643,369.358,109.416z"/>
<path fill-rule="evenodd" clip-rule="evenodd" fill="#FECE29" d="M365.365,162.447c-0.006-3.667-0.012-7.335-0.019-11.002
	C366.957,155.11,366.805,158.778,365.365,162.447z"/>
<path fill-rule="evenodd" clip-rule="evenodd" fill="#E9EBED" d="M438.354,125.404c0.332-0.003,0.664-0.004,0.995-0.003
	c-0.001,3-0.001,6-0.001,8.999h-0.497l-0.496-0.002C438.354,131.4,438.354,128.402,438.354,125.404z"/>
<path fill-rule="evenodd" clip-rule="evenodd" fill="#FECE2B" d="M342.017,168.504c1.12-0.062,2.239-0.124,3.359-0.187
	c2.09,0.062,4.181,0.125,6.272,0.188C348.439,169.617,345.228,169.619,342.017,168.504z"/>
<path fill-rule="evenodd" clip-rule="evenodd" fill="#FEDC4C" d="M377.453,109.349c-2.697,0.021-5.394,0.042-8.09,0.063
	C372.048,107.965,374.747,108.233,377.453,109.349z"/>
<path fill-rule="evenodd" clip-rule="evenodd" fill="#FD8300" d="M214.411,259.276c-5.221-1.602-7.545,0.938-8.673,5.76
	c-0.654,2.795-5.26,4.358-7.586,3.007c-1.516-0.882-0.649-1.976-0.304-3.004c3.801-11.323,7.691-22.618,11.356-33.985
	c0.705-2.187,2.194-1.898,3.472-1.67c2.555,0.455,6.188-1.881,7.54,1.734c4.301,11.5,8.245,23.133,12.315,34.718
	c0.319,0.908,0.842,2.271-0.704,2.23c-2.504-0.063-5.337,1.324-7.437-1.181c-0.41-0.489-0.694-1.173-0.809-1.808
	C222.633,259.835,219.677,257.697,214.411,259.276z"/>
<path fill-rule="evenodd" clip-rule="evenodd" fill="#FD8300" d="M245.393,253.764c0,3.156-0.133,6.319,0.038,9.467
	c0.172,3.183-0.021,5.194-4.311,5.145c-4.219-0.049-3.927-2.259-3.899-5.049c0.07-6.976,0.184-13.959-0.047-20.928
	c-0.108-3.269,1.242-3.862,4.102-3.82c2.721,0.039,4.425,0.328,4.18,3.728C245.182,246.107,245.392,249.942,245.393,253.764z"/>
<path fill-rule="evenodd" clip-rule="evenodd" fill="#F37D00" d="M241.663,235.447c-3.212,0.08-4.693-1.659-4.891-4.168
	c-0.226-2.862,1.404-4.702,4.371-4.797c2.671-0.085,4.42,1.257,4.515,4.078C245.755,233.482,244.236,235.134,241.663,235.447z"/>
<path fill-rule="evenodd" clip-rule="evenodd" fill="#1DE8B5" d="M611.449,283.774c-1.414,0.114-1.96-0.857-2.632-1.521
	c-4.26-4.203-8.415-8.517-12.745-12.647c-1.736-1.657-1.699-2.752,0.004-4.43c10.421-10.271,20.782-20.602,31.074-31.001
	c1.729-1.746,2.848-1.59,4.456,0.071c4.162,4.3,8.429,8.501,12.728,12.665c1.404,1.36,1.991,2.389,0.301,4.061
	c-10.644,10.519-21.207,21.117-31.807,31.68C612.369,283.11,611.818,283.478,611.449,283.774z"/>
<path fill-rule="evenodd" clip-rule="evenodd" fill="#FDFDFE" d="M606.793,248.214c-0.542-7.175-5.293-9.545-8.527-12.924
	c-6.685-6.985-6.805-6.87-0.056-13.576c0.944-0.938,1.887-1.878,2.829-2.817c7.578-7.555,7.652-7.626,14.935-0.115
	c3.089,3.187,8.658,5.95,8.47,9.761c-0.161,3.266-5.347,6.266-8.273,9.416C613.349,240.995,610.573,244.074,606.793,248.214z"/>
<path fill-rule="evenodd" clip-rule="evenodd" fill="#3679B1" d="M332.438,101.148c1.626,0.04,3.252,0.079,4.878,0.119
	C335.649,102.893,334.018,103.067,332.438,101.148z"/>
<path fill-rule="evenodd" clip-rule="evenodd" fill="#31A7FE" d="M457.162,246.493c0-5.152,0.193-10.314-0.07-15.453
	c-0.167-3.24,1.146-4.009,4.045-3.843c3.146,0.181,6.315-0.074,9.469,0.033c8.134,0.277,13.348,4.948,13.719,12.169
	c0.389,7.57-4.393,12.884-12.554,13.946c-7.05,0.918-7.12,0.918-7.11,7.676c0.004,2.732,0.016,4.596-3.811,4.617
	c-3.965,0.022-3.742-2.061-3.707-4.686C457.208,256.134,457.161,251.313,457.162,246.493z"/>
<path fill-rule="evenodd" clip-rule="evenodd" fill="#31A7FD" d="M488.584,257.689c2.799,0.804,5.25,2.02,7.969,1.757
	c1.669-0.161,4.119,0.858,4.602-1.626c0.408-2.101-1.971-2.306-3.344-3.042c-1.744-0.937-3.658-1.582-5.329-2.625
	c-3.063-1.914-4.708-4.721-4.047-8.411c0.642-3.577,2.918-5.977,6.347-6.985c3.396-0.998,6.928-0.721,10.384-0.176
	c3.522,0.557,2.529,3.444,2.425,5.557c-0.16,3.266-2.415,1.175-3.631,1.007c-2.68-0.37-6.286-2.348-7.418,0.986
	c-1.029,3.032,3.09,3.132,5.143,4.084c5.92,2.748,8.348,5.891,7.535,10.278c-0.885,4.774-4.984,7.616-11.268,7.798
	c-0.829,0.024-1.662,0.022-2.489-0.022C488.563,265.894,487.939,265.161,488.584,257.689z"/>
<path fill-rule="evenodd" clip-rule="evenodd" fill="#FE60F5" d="M382.46,244.404c0,5.319-0.225,10.652,0.087,15.953
	c0.176,2.999-0.997,4.353-3.652,4.778c-2.782,0.446-5.589,1.027-8.386,1.037c-8.461,0.027-14.392-4.816-15.169-12.086
	c-1.025-9.585,3.528-16.789,12.982-17.969c5.797-0.723,6.521-3.178,5.958-7.792c-0.343-2.811-0.335-5.062,3.879-4.95
	c3.583,0.095,4.508,1.178,4.345,4.575c-0.263,5.473-0.071,10.968-0.071,16.453C382.441,244.404,382.451,244.404,382.46,244.404z"/>
<path fill-rule="evenodd" clip-rule="evenodd" fill="#FD60F4" d="M320.378,227.234c6.386-1.495,10.631-0.296,12.675,5.887
	c0.814,2.464,2.568,4.617,4.135,7.33c2.596-2.304,3.742-5.345,4.793-8.043c2.129-5.466,5.686-6.717,11.504-4.999
	c-3.025,5.055-5.805,10.08-8.977,14.845c-1.641,2.466-1.564,4.258,0.045,6.686c3.386,5.105,6.425,10.441,9.643,15.742
	c-7.759,2.168-9.098,1.615-12.579-4.896c-1.408-2.634-2.891-5.227-4.731-8.542c-1.717,3.096-3.228,5.69-4.617,8.349
	c-3.498,6.689-3.476,6.701-12.111,5.433c3.319-5.533,6.417-10.973,9.813-16.217c1.291-1.994,1.219-3.403,0.01-5.344
	C326.744,238.265,323.725,232.927,320.378,227.234z"/>
<path fill-rule="evenodd" clip-rule="evenodd" fill="#ECEDED" d="M463.381,118.248c0.566-0.628,1.133-1.257,1.699-1.886
	c1.091,0.113,1.586,0.875,1.954,1.777c2.249,2.39,4.384,4.838,4.217,8.435c1.248,4.018,2.579,8.005,4.035,11.949
	c0.353,0.853,0.688,1.712,0.891,2.615c0.497,2.176-0.768,3.916-1.438,5.81c-0.483,0.918-1.312,1.255-2.281,1.355
	c-0.47-0.003-0.927-0.083-1.369-0.241c-0.819-0.418-1.704-0.765-2.019-1.762c1.58-1.475,1.771-3.04,0.287-4.706
	c-1.826-3.691-2.917-7.678-4.594-11.431c-0.731-1.638-1.2-3.462-3.117-4.23c-0.422-0.265-0.728-0.622-0.937-1.07
	C459.836,121.944,462.171,120.324,463.381,118.248z"/>
<path fill-rule="evenodd" clip-rule="evenodd" fill="#EDEDED" d="M493.301,143.609c-0.506,0.583-1.012,1.165-1.518,1.748
	c-1.527,1.285-3.279,2.133-5.191,2.677c-0.498,0.12-0.992,0.116-1.489-0.006c-0.737-0.273-1.266-0.785-1.658-1.451
	c-1.491-3.846-3.147-7.634-4.313-11.603c-0.389-1.666-1.695-2.926-2.068-4.604c-0.568-2.495-1.904-4.826-1.61-7.509
	c1.603-3.537,4.034-2.972,6.681-1.355c2.063,4.935,3.277,10.159,5.062,15.19c0.272,1.304,0.806,2.497,1.581,3.585
	c0.706,3.923,2.697-0.617,3.822,0.575c0.48,0.114,0.855,0.377,1.147,0.771C494.004,142.383,493.904,143.053,493.301,143.609z"/>
<path fill-rule="evenodd" clip-rule="evenodd" fill="#EDEDED" d="M493.791,117.455c0.549,0.335,1.096,0.67,1.644,1.004
	c0.009,1.434,0.606,2.817,0.356,4.273c0.012,1.03-3.086,0.17-1.35,2.251c0.095,1.901-0.221,3.681-1.479,5.188
	c-2.034,1.308-2.512-1.147-3.832-1.584c-0.281-0.339-0.491-0.719-0.653-1.127c-0.341-1.254-0.798-2.462-1.517-3.564
	c-0.217-0.41-0.369-0.838-0.479-1.287c-0.381-2.079,0.359-3.718,1.961-5.023c0.911-0.757,1.741-1.667,3.053-1.715
	C492.563,115.961,492.947,117.04,493.791,117.455z"/>
<path fill-rule="evenodd" clip-rule="evenodd" fill="#D1D2D3" d="M470.346,141.402c2.197,2.146,1.628,3.749-0.975,4.951
	c-1.227,0.683-1.633-0.653-2.445-0.991c-1.373,0.117-2.09-0.684-2.562-1.828c-0.761-0.902-1.479-1.823-1.36-3.112
	c0.303-0.675,0.797-1.135,1.511-1.347c2.551,0.547,3.831,2.559,5.202,4.259c-0.118,0.904,0.69,0.266,0.024,0.245
	c-0.06-0.002,0.004-0.166-0.021-0.476C469.664,142.425,469.846,141.863,470.346,141.402z"/>
<path fill-rule="evenodd" clip-rule="evenodd" fill="#919497" d="M472.314,111.29c5.486-1.839,10.85-1.94,15.989,1.132
	c-0.157,0.77-0.614,1.275-1.348,1.54c-1.497,0.32-2.798-0.378-4.155-0.792c-2.779-0.833-5.566-0.565-8.358-0.063
	c-0.769,0.079-1.493-0.038-2.147-0.472C471.923,112.181,471.93,111.732,472.314,111.29z"/>
<path fill-rule="evenodd" clip-rule="evenodd" fill="#8E9193" d="M463.381,118.248c-0.721,2.378-1.441,4.756-2.163,7.133
	c0.175,1.311,0.259,2.587-1.261,3.237c-1.369-0.489-1.135-1.459-0.738-2.477C459.119,122.727,459.645,119.641,463.381,118.248z"/>
<path fill-rule="evenodd" clip-rule="evenodd" fill="#A4A6A8" d="M498.313,125.36c1.797,3.33,1.476,6.703,0.203,10.096
	c-0.479,0.373-0.957,0.376-1.441,0.009c-0.522-0.643-0.776-1.394-0.897-2.199c-0.149-1.852-0.202-3.702,0.171-5.541
	C496.622,126.622,497.288,125.842,498.313,125.36z"/>
<path fill-rule="evenodd" clip-rule="evenodd" fill="#D4D5D5" d="M498.313,125.36c-0.365,0.719-0.73,1.438-1.096,2.157
	c-0.615,1.914-0.563,3.831-0.028,5.751c0.021,0.699,0.043,1.398,0.063,2.098c-0.078,1.463,0.301,3.213-2.043,3.259
	c-0.723-0.382-1.199-0.951-1.361-1.767c0.101-3.349,0.055-6.709,0.658-10.028c0.285-1.046,0.8-1.942,1.682-2.602
	c0.586-0.189,1,0.001,1.24,0.568C497.723,124.984,498.018,125.172,498.313,125.36z"/>
<path fill-rule="evenodd" clip-rule="evenodd" fill="#97999C" d="M485.456,147.499c0.325,0.009,0.647,0.043,0.968,0.104
	c0.502,0.197,1.109,0.268,1.188,0.979c-4.102,2.882-8.676,2.089-13.197,1.692c-0.147-1.473,1.008-1.623,1.98-1.966
	C479.41,148.019,482.395,147.322,485.456,147.499z"/>
<path fill-rule="evenodd" clip-rule="evenodd" fill="#D6D7D8" d="M466.488,118.668c-0.467-0.769-0.935-1.537-1.405-2.306
	c0.479-0.711,0.964-1.423,1.446-2.134c1.809,0.33,3.054-2.205,5.039-0.993c0.412,0.609,0.488,1.273,0.328,1.979
	c-0.793,1.82-2.332,2.78-4.065,3.519C467.378,118.854,466.93,118.831,466.488,118.668z"/>
<path fill-rule="evenodd" clip-rule="evenodd" fill="#999B9E" d="M459.219,126.142c0.322,0.745,0.644,1.49,0.966,2.236
	c1.783,1.568,1.516,3.438,0.79,5.375c-0.186,0.208-0.375,0.415-0.563,0.622C456.662,132.116,458.394,129.063,459.219,126.142z"/>
<path fill-rule="evenodd" clip-rule="evenodd" fill="#8C8F92" d="M497.428,124.797c-0.336-0.176-0.672-0.353-1.008-0.528
	c-0.873-0.419-0.576-1.38-0.942-2.033c-0.925-1.249-1.396-2.503-0.044-3.776C496.525,120.438,498.961,121.993,497.428,124.797z"/>
<path fill-rule="evenodd" clip-rule="evenodd" fill="#888B8D" d="M487.357,113.33c0.316-0.303,0.631-0.605,0.946-0.908
	c2.466,0.983,4.61,2.317,5.485,5.034c-0.854-0.327-1.711-0.653-2.568-0.979C489.65,115.774,487.645,115.607,487.357,113.33z"/>
<path fill-rule="evenodd" clip-rule="evenodd" fill="#A2A4A5" d="M461.319,140.439c-1.71-1.811-2.812-3.713-0.909-6.064
	c0.001,0-0.096,0.043-0.096,0.043c0.383-0.35,0.797-0.409,1.248-0.135c1.051,1.421,1.234,3.062,1.217,4.758
	C462.581,139.807,462.086,140.266,461.319,140.439z"/>
<path fill-rule="evenodd" clip-rule="evenodd" fill="#888B8D" d="M471.35,113.406c-1.736-0.478-2.882,2.5-4.821,0.823
	c1.67-1.491,3.511-2.642,5.786-2.939c0.023,0.406,0.047,0.813,0.071,1.22C472.478,113.313,472.217,113.71,471.35,113.406z"/>
<path fill-rule="evenodd" clip-rule="evenodd" fill="#8D8F92" d="M487.611,148.582c-0.396-0.327-0.792-0.654-1.188-0.98
	c1.735-0.868,3.17-2.452,5.358-2.244C491.203,147.48,489.735,148.455,487.611,148.582z"/>
<path fill-rule="evenodd" clip-rule="evenodd" fill="#A1A3A5" d="M476.533,149.272c-0.707,0.334-1.414,0.669-2.12,1.002
	c-1.644-0.015-3.075-0.579-4.306-1.663c0.053-0.724,0.68-0.823,1.168-1.071c0.334-0.03,0.668-0.062,1.002-0.092
	C473.412,148.717,476.07,146.437,476.533,149.272z"/>
<path fill-rule="evenodd" clip-rule="evenodd" fill="#9EA0A2" d="M495.436,138.497c0.605-1.043,1.213-2.087,1.818-3.131
	c0.42,0.029,0.84,0.06,1.262,0.09c-0.129,1.912-0.582,3.685-2.137,4.985c-0.608-0.083-1.014-0.438-1.295-0.963
	C495.014,139.086,495.132,138.758,495.436,138.497z"/>
<path fill-rule="evenodd" clip-rule="evenodd" fill="#8C8F91" d="M471.275,147.54c-0.389,0.356-0.777,0.713-1.168,1.07
	c-1.713-0.443-2.944-1.355-3.175-3.249c0.809,0.331,1.623,0.662,2.438,0.992C470.006,146.749,470.641,147.145,471.275,147.54z"/>
<path fill-rule="evenodd" clip-rule="evenodd" fill="#828588" d="M461.319,140.439c0.325-0.337,0.651-0.675,0.978-1.012
	c0.576,0.078,0.93,0.399,1.06,0.967c0.336,1.046,0.672,2.092,1.008,3.139C462.734,143.108,461.885,141.913,461.319,140.439z"/>
<path fill-rule="evenodd" clip-rule="evenodd" fill="#7A7D80" d="M495.494,139.462c0.295,0.327,0.59,0.653,0.885,0.979
	c-0.507,1.56-1.564,2.584-3.078,3.167c0.121-0.703,0.242-1.407,0.362-2.111C493.717,140.318,494.336,139.647,495.494,139.462z"/>
<path fill-rule="evenodd" clip-rule="evenodd" fill="#040400" d="M221.343,138.54c0,3.329,0.031,6.658-0.008,9.987
	c-0.048,4.139-1.411,7.675-5.563,9.163c-4.51,1.618-8.908,1.232-12.473-2.39c-1.022-1.038-3.077-2.396-0.692-3.94
	c1.41-0.914,2.827-3.493,4.992-0.994c1.453,1.677,3.158,2.569,5.262,1.479c1.983-1.027,1.693-3.084,1.704-4.883
	c0.04-6.325,0.149-12.654-0.039-18.975c-0.087-2.928,1.011-3.615,3.761-3.652c2.984-0.04,3.16,1.468,3.097,3.718
	c-0.099,3.493-0.026,6.99-0.026,10.486C221.354,138.54,221.349,138.54,221.343,138.54z"/>
<path fill-rule="evenodd" clip-rule="evenodd" fill="#336C9C" d="M365.303,113.404c-5.513,3.142-9.871,7.436-12.957,12.997
	c-2.834-0.507-7.01,1.601-8.202-1.151c-0.883-2.038,3.155-4.156,5.067-6.155c4.144-4.331,8.445-8.512,12.696-12.739
	c0.69-0.687,1.386-1.77,2.43-1.458c1.487,0.443,0.942,1.931,0.982,3.013C365.388,109.738,365.316,111.572,365.303,113.404z"/>
<path fill-rule="evenodd" clip-rule="evenodd" fill="#FECD25" d="M386.331,131.409c-6.731,3.668-11.16,9.5-14.964,15.917
	c-2.66,0.002-5.319,0.005-7.979,0.007c1.038-2.934,3.432-4.79,5.46-6.95c4.173-4.445,8.262-8.972,12.455-13.397
	c1.208-1.275,2.51-3.407,4.372-2.592c1.575,0.691,0.425,2.979,0.65,4.539C386.441,129.741,386.335,130.583,386.331,131.409z"/>
<path fill-rule="evenodd" clip-rule="evenodd" fill="#2C0500" d="M215.141,237.929c1.261,4.252,2.521,8.504,3.742,12.619
	c-0.338,0.363-0.521,0.741-0.73,0.757c-8.13,0.614-8.133,0.609-5.88-7.098c0.635-2.171,1.285-4.338,1.928-6.507
	C214.514,237.776,214.828,237.853,215.141,237.929z"/>
<path fill-rule="evenodd" clip-rule="evenodd" fill="#01213A" d="M464.661,240.38c0.312-2.75-1.517-6.648,4.093-6.234
	c5.099,0.376,7.813,2.301,7.674,6.369c-0.131,3.812-3.163,6.033-8.146,5.97C464.665,246.438,464.665,246.438,464.661,240.38z"/>
<path fill-rule="evenodd" clip-rule="evenodd" fill="#4B033B" d="M374.267,250.995c0,0.993,0.136,2.009-0.03,2.974
	c-0.305,1.779,1.183,4.379-1.563,5.104c-2.486,0.657-4.973-0.179-6.861-2.001c-3.248-3.133-3.206-8.928,0.026-12.136
	c1.998-1.982,4.571-3.208,7.205-2.216c2.324,0.875,0.899,3.48,1.195,5.301C374.396,248.988,374.267,250.002,374.267,250.995z"/>
<path fill-rule="evenodd" clip-rule="evenodd" fill="#5D6165" d="M476.301,123.459c0.662,2.288,1.322,4.576,1.983,6.864
	c-1.048,1.87-0.991,4.041-1.622,6.027c-0.461,1.259-0.076,3.164-2.32,3.068c-1.449-4.255-3.315-8.38-4.052-12.86
	c-1.02-2.663-0.074-4.318,2.607-5.089C474.5,121.329,475.623,122.016,476.301,123.459z"/>
<path fill-rule="evenodd" clip-rule="evenodd" fill="#64676B" d="M480.316,134.445c1.309,3.925,2.617,7.85,3.926,11.774
	c-3.229,2.593-6.547,2.94-9.98,0.396c-0.639-1.935,1.644-3.102,1.301-4.959c0.223-1.841,0.807-3.608,1.104-5.438
	C477.693,135.246,477.308,131.333,480.316,134.445z"/>
<path fill-rule="evenodd" clip-rule="evenodd" fill="#6F7376" d="M470.345,141.402c-0.1,1.404,0.63,3.983-2.199,1.632
	c-1.341-1.115-2.567-2.365-3.847-3.554c-2.373-1.242-1.824-3.856-2.721-5.794c-0.1-2.796-0.969-5.666,0.793-8.282
	c1.621-1.466,1.848-0.005,2.261,1.075C466.535,131.454,468.44,136.428,470.345,141.402z"/>
<path fill-rule="evenodd" clip-rule="evenodd" fill="#DCDDDD" d="M474.262,146.616c3.361,0.741,6.695,0.784,9.98-0.396
	c0.404,0.426,0.809,0.853,1.213,1.279c-2.773,1.605-5.828,1.792-8.924,1.774c-1.416-0.609-2.835-1.218-4.254-1.826
	C472.938,147.171,473.6,146.894,474.262,146.616z"/>
<path fill-rule="evenodd" clip-rule="evenodd" fill="#E4E5E5" d="M462.371,125.404c-0.054,3.002-0.107,6.004-0.161,9.007
	c-0.317,0.506-0.653,0.518-1.006,0.035l-0.446,0.014l-0.443-0.042c-0.043-2.014-0.086-4.027-0.129-6.04
	c0.295-1.016,0.063-2.214,1.033-2.997C461.602,125.389,461.986,125.396,462.371,125.404z"/>
<path fill-rule="evenodd" clip-rule="evenodd" fill="#606468" d="M473.511,122.335c-2.718,0.154-3.251,1.974-3.221,4.223
	c-1.272-2.214-0.177-6.173-4.516-6.128c0.237-0.588,0.476-1.175,0.714-1.762c0.301-0.043,0.588-0.127,0.863-0.253
	c2.041,0.836,4.351,1.059,6.066,2.647C473.67,121.471,473.711,121.895,473.511,122.335z"/>
<path fill-rule="evenodd" clip-rule="evenodd" fill="#D1D2D3" d="M477.424,136.507c-0.177,1.877-0.723,3.62-1.861,5.15
	c-0.406-0.746-0.813-1.492-1.221-2.238c1.664-0.939,0.858-2.644,1.234-3.981C476.814,134.72,477.598,134.786,477.424,136.507z"/>
<path fill-rule="evenodd" clip-rule="evenodd" fill="#5D6165" d="M473.377,121.403c-1.918-1.177-5.117,0.226-6.025-2.988
	c1.357-1.139,2.715-2.276,4.072-3.415c0.453-0.267,0.924-0.498,1.411-0.697c3.05-1.031,6.142-1.562,9.347-0.811
	c1.975,0.646,4.221,0.758,5.539,2.733c0.944,2.39-2.566,4.688-0.148,7.113l-0.072-0.115c0.744,1.353,1.099,2.886,1.934,4.197
	c0.174,0.255,0.281,0.535,0.322,0.841c0.639,0.744,1.081,1.56,0.938,2.588c-1.351,2.303-0.644,5.969-4.407,6.678
	c-1.367-5.027-4.965-9.475-3.933-15.125C479.686,119.155,476.367,121.753,473.377,121.403z"/>
<path fill-rule="evenodd" clip-rule="evenodd" fill="#7A7D80" d="M495.494,126.341c0.104,3.744,0.34,7.5-1.051,11.103
	c0.324,1.935-1.026,2.881-2.289,3.879c-1.219,0.942-2.438,1.885-3.699,2.86c-1.036-1.462,0.162-2.605-0.025-3.785
	c-0.436-2.674,1.018-4.912,1.686-7.332c0.328-1.163,0.976-2.103,1.967-2.799c0.877-1.802,1.49-3.665,1.338-5.708
	C495.665,123.346,495.895,124.478,495.494,126.341z"/>
<path fill-rule="evenodd" clip-rule="evenodd" fill="#C5C6C7" d="M491.146,133.276c-0.759,2.43-1.153,4.998-2.716,7.121
	c-1.913-0.062-2.27-1.285-2.143-2.87c2.53-1.703,1.796-5.269,4.063-7.123C491.398,131.145,490.459,132.436,491.146,133.276z"/>
<path fill-rule="evenodd" clip-rule="evenodd" fill="#C1C2C3" d="M473.377,121.403c2.854-1.567,5.915-0.609,8.873-0.614
	c1.014-0.002,0.981,0.992,0.104,1.613c-2.175-0.545-4.601-2.534-6.054,1.057c-0.93-0.375-1.86-0.749-2.791-1.124
	C473.492,122.021,473.447,121.711,473.377,121.403z"/>
<path fill-rule="evenodd" clip-rule="evenodd" fill="#C5C6C7" d="M477.424,136.507c-0.383-0.759-1.035-1.055-1.848-1.069
	c0.829-1.744,0.639-4.027,2.708-5.114c-0.068,1.741,2.357,2.253,2.032,4.121C477.788,132.938,478.605,136.124,477.424,136.507z"/>
<path fill-rule="evenodd" clip-rule="evenodd" fill="#EAEAEA" d="M492.154,141.322c0.764-1.293,1.525-2.586,2.289-3.879
	c0.33,0.351,0.66,0.702,0.992,1.054c-0.047,0.326-0.027,0.647,0.058,0.965c-0.61,0.679-1.222,1.356-1.831,2.034
	C493.16,141.438,492.658,141.381,492.154,141.322z"/>
<path fill-rule="evenodd" clip-rule="evenodd" fill="#E8E8E8" d="M487.346,116.45c-1.266-1.702-3.589-0.801-5.039-2.048
	c-0.443-0.44-1.126-0.646-1.316-1.337c0.002-0.458,0.197-0.809,0.585-1.053c0.65-0.103,1.284-0.108,1.835,0.336
	c1.315,0.327,2.632,0.654,3.947,0.981c1.288,1.049,2.576,2.098,3.863,3.146c-0.67,0.626-1.34,1.252-2.01,1.879
	C488.535,117.772,488.029,117.024,487.346,116.45z"/>
<path fill-rule="evenodd" clip-rule="evenodd" fill="#606468" d="M487.346,116.45c1.467-0.193,1.828,0.697,1.865,1.905
	c-2.537,1.006-1.657,3.137-1.641,4.983C484.762,121.132,487.291,118.75,487.346,116.45z"/>
<path fill-rule="evenodd" clip-rule="evenodd" fill="#DEDEDF" d="M491.146,133.276c-1.03-0.745-0.648-1.882-0.796-2.872
	c-0.198-0.714-0.396-1.428-0.594-2.143c2.455-1.28,1.063,1.904,2.326,2.005C491.77,131.27,491.457,132.273,491.146,133.276z"/>
<path fill-rule="evenodd" clip-rule="evenodd" fill="#E0E0E1" d="M495.494,126.341c-0.344-0.998-0.624-2.071-2.074-1.783
	c-0.673-1.976,1.65-1.3,2.057-2.322c0.314,0.678,0.629,1.356,0.943,2.034C496.111,124.959,495.803,125.65,495.494,126.341z"/>
<path fill-rule="evenodd" clip-rule="evenodd" fill="#606468" d="M489.434,127.421c-1.4-1.051-2.041-2.45-1.934-4.196
	C488.824,124.31,489.608,125.645,489.434,127.421z"/>
<path fill-rule="evenodd" clip-rule="evenodd" fill="#EAEAEA" d="M461.204,134.446c0.335-0.012,0.671-0.023,1.006-0.035
	c0.696,1.689,1.393,3.379,2.089,5.069c-0.314,0.305-0.629,0.609-0.942,0.914c-0.353-0.322-0.706-0.645-1.06-0.967
	C461.933,137.768,461.568,136.107,461.204,134.446z"/>
<path fill-rule="evenodd" clip-rule="evenodd" fill="#CDCECF" d="M483.41,112.349c-0.68,0.032-1.357,0.065-2.037,0.098
	c-1.724,1.354-3.713,0.893-5.645,0.826c-0.562-0.144-1.025-0.438-1.395-0.883C477.352,110.843,480.378,110.929,483.41,112.349z"/>
<path fill-rule="evenodd" clip-rule="evenodd" fill="#F3F3F3" d="M474.334,112.39c0.299,0.086,0.603,0.131,0.913,0.135
	c0.276,0.2,0.409,0.436,0.396,0.705c-0.013,0.286-0.055,0.43-0.124,0.43c-0.906,1.165-2.324,1.194-3.57,1.608
	c-0.156-0.127-0.331-0.216-0.525-0.268c-0.025-0.531-0.049-1.063-0.074-1.594c0.346-0.3,0.69-0.599,1.035-0.897
	C473.035,112.47,473.685,112.43,474.334,112.39z"/>
<path fill-rule="evenodd" clip-rule="evenodd" fill="#E7E7E7" d="M497.188,133.269c-1.247-1.924-1.276-3.842,0.028-5.752
	C497.207,129.435,497.197,131.352,497.188,133.269z"/>
<path fill-rule="evenodd" clip-rule="evenodd" fill="#606468" d="M471.949,115.268c1.143-0.589,2.284-1.177,3.426-1.766
	c1.977-0.964,3.97-0.834,5.971-0.087c0.32,0.329,0.641,0.658,0.961,0.987C478.854,114.691,475.402,114.979,471.949,115.268z"/>
<path fill-rule="evenodd" clip-rule="evenodd" fill="#DEDEDF" d="M481.346,113.415c-1.99,0.029-3.98,0.058-5.971,0.087
	c-0.025-0.329-0.068-0.655-0.127-0.979c2.041-0.025,4.083-0.052,6.125-0.077C481.357,112.77,481.348,113.092,481.346,113.415z"/>
</svg>
