<?xml version="1.0" encoding="utf-8"?>
<!-- Generator: Adobe Illustrator 26.0.3, SVG Export Plug-In . SVG Version: 6.00 Build 0)  -->
<svg version="1.1" id="Calque_1" xmlns="http://www.w3.org/2000/svg" xmlns:xlink="http://www.w3.org/1999/xlink" x="0px" y="0px"
	 viewBox="0 0 384 88" style="enable-background:new 0 0 384 88;" xml:space="preserve">
<style type="text/css">
	.st0{fill:#404041;}
	.st1{fill:#5E5D5E;stroke:#393939;stroke-width:0.5;stroke-linecap:round;stroke-linejoin:round;stroke-miterlimit:10;}
	.st2{fill:#5F5E60;stroke:#393939;stroke-width:0.5;stroke-linecap:round;stroke-linejoin:round;stroke-miterlimit:10;}
	.st3{fill:#616061;stroke:#393939;stroke-width:0.5;stroke-linecap:round;stroke-linejoin:round;stroke-miterlimit:10;}
	.st4{fill:#5F5D5E;stroke:#393939;stroke-width:0.5;stroke-linecap:round;stroke-linejoin:round;stroke-miterlimit:10;}
	.st5{fill:#5E5C5E;stroke:#393939;stroke-width:0.5;stroke-linecap:round;stroke-linejoin:round;stroke-miterlimit:10;}
	.st6{fill:#605E60;stroke:#393939;stroke-width:0.5;stroke-linecap:round;stroke-linejoin:round;stroke-miterlimit:10;}
	.st7{fill:#636163;stroke:#393939;stroke-width:0.5;stroke-linecap:round;stroke-linejoin:round;stroke-miterlimit:10;}
	.st8{fill:#605F61;stroke:#393939;stroke-width:0.5;stroke-linecap:round;stroke-linejoin:round;stroke-miterlimit:10;}
	.st9{fill:#5D5C5E;stroke:#393939;stroke-width:0.5;stroke-linecap:round;stroke-linejoin:round;stroke-miterlimit:10;}
	.st10{fill:#615F61;stroke:#393939;stroke-width:0.5;stroke-linecap:round;stroke-linejoin:round;stroke-miterlimit:10;}
	.st11{fill:#626061;stroke:#393939;stroke-width:0.5;stroke-linecap:round;stroke-linejoin:round;stroke-miterlimit:10;}
	.st12{fill:#656263;stroke:#393939;stroke-width:0.5;stroke-linecap:round;stroke-linejoin:round;stroke-miterlimit:10;}
	.st13{fill:#676364;stroke:#393939;stroke-width:0.5;stroke-linecap:round;stroke-linejoin:round;stroke-miterlimit:10;}
	.st14{fill:#625F60;stroke:#393939;stroke-width:0.5;stroke-linecap:round;stroke-linejoin:round;stroke-miterlimit:10;}
	.st15{fill:#6B686A;stroke:#393939;stroke-width:0.5;stroke-linecap:round;stroke-linejoin:round;stroke-miterlimit:10;}
	.st16{fill:#686567;stroke:#393939;stroke-width:0.5;stroke-linecap:round;stroke-linejoin:round;stroke-miterlimit:10;}
	.st17{fill:#676466;stroke:#393939;stroke-width:0.5;stroke-linecap:round;stroke-linejoin:round;stroke-miterlimit:10;}
	.st18{fill:#636162;stroke:#393939;stroke-width:0.5;stroke-linecap:round;stroke-linejoin:round;stroke-miterlimit:10;}
	.st19{fill:#605E5F;stroke:#393939;stroke-width:0.5;stroke-linecap:round;stroke-linejoin:round;stroke-miterlimit:10;}
	.st20{fill:#6E6B6C;stroke:#393939;stroke-width:0.5;stroke-linecap:round;stroke-linejoin:round;stroke-miterlimit:10;}
	.st21{fill:#636062;stroke:#393939;stroke-width:0.5;stroke-linecap:round;stroke-linejoin:round;stroke-miterlimit:10;}
	.st22{fill:#646264;stroke:#393939;stroke-width:0.5;stroke-linecap:round;stroke-linejoin:round;stroke-miterlimit:10;}
	.st23{fill:#626062;stroke:#393939;stroke-width:0.5;stroke-linecap:round;stroke-linejoin:round;stroke-miterlimit:10;}
	.st24{fill:#666466;stroke:#393939;stroke-width:0.5;stroke-linecap:round;stroke-linejoin:round;stroke-miterlimit:10;}
	.st25{fill:#5E5C5D;stroke:#393939;stroke-width:0.5;stroke-linecap:round;stroke-linejoin:round;stroke-miterlimit:10;}
	.st26{fill:#626163;stroke:#393939;stroke-width:0.5;stroke-linecap:round;stroke-linejoin:round;stroke-miterlimit:10;}
	.st27{fill:#5B595B;stroke:#393939;stroke-width:0.5;stroke-linecap:round;stroke-linejoin:round;stroke-miterlimit:10;}
	.st28{fill:#6A6769;stroke:#393939;stroke-width:0.5;stroke-linecap:round;stroke-linejoin:round;stroke-miterlimit:10;}
	.st29{fill:#6A6768;stroke:#393939;stroke-width:0.5;stroke-linecap:round;stroke-linejoin:round;stroke-miterlimit:10;}
	.st30{fill:#FFFFFF;stroke:#393939;stroke-width:0.5;stroke-linecap:round;stroke-linejoin:round;stroke-miterlimit:10;}
	.st31{fill:#5D5C5D;stroke:#393939;stroke-width:0.5;stroke-linecap:round;stroke-linejoin:round;stroke-miterlimit:10;}
	.st32{fill:#2EBDEF;}
	.st33{fill:#F08139;}
	.st34{fill:#FDCF26;}
	.st35{fill:#0EA5C3;}
	.st36{fill:#FFFFFF;}
</style>
<path class="st0" d="M311,20.4c-1.3,0-2.5,0-3.7,0c-0.3,0-0.6,0.1-0.9-0.1c-0.3-0.1-0.2-0.5-0.3-0.8c-0.6-1.7-1.7-3.1-3.2-4.1
	c-3.2-1.9-6.6-2.3-10.1-1c-2.6,1-4.5,2.9-5.6,5.5c-1.6,3.9-1.3,7.8,1.1,11.3c1.9,2.9,4.7,4.3,8.2,4.4c2.1,0.1,4.1-0.4,6-1.5
	c1.7-1,2.9-2.5,3.7-4.3c0-0.1,0-0.1,0.1-0.2c-0.2-0.1-0.4-0.1-0.6-0.1c-3.3,0-6.5,0-9.8,0c-0.8,0-0.7,0.1-0.7-0.7c0-1,0-2.1,0-3.1
	c0-0.6,0-0.5,0.5-0.5c4.1,0,8.2,0,12.3,0c1,0,2,0,3,0c0.4,0,0.4,0,0.4,0.4c-0.1,1.3-0.2,2.6-0.5,3.8c-0.4,1.7-1.2,3.2-2.3,4.6
	c-2.6,3.2-6,5.2-10.1,5.7c-7,0.9-14.1-3.2-16-11c-1-4-0.7-7.9,1.2-11.6c2.3-4.3,5.9-6.9,10.7-7.7c4.3-0.7,8.2,0.2,11.8,2.7
	c2.7,1.9,4.2,4.6,4.9,7.8C311,20.1,311,20.2,311,20.4z"/>
<path class="st0" d="M218.7,18.9c0,0.2,0,0.4,0,0.6c0,6.5,0,13,0,19.5c0,0.8,0.1,0.7-0.7,0.7c-1.1,0-2.2,0-3.2,0
	c-0.4,0-0.4,0-0.4-0.4c0-0.1,0-0.2,0-0.4c0-9.6,0-19.2,0-28.8c0-0.8-0.1-0.7,0.8-0.7c0.7,0,1.4,0.1,2.1,0c0.4,0,0.6,0.1,0.8,0.4
	c3.6,5.2,7.2,10.4,10.8,15.6c1.1,1.7,2.3,3.3,3.5,5c0.1-0.2,0.1-0.4,0.1-0.6c0-6.6,0-13.2,0-19.8c0-0.7,0-0.7,0.7-0.7
	c1.1,0,2.2,0,3.2,0c0.3,0,0.4,0.1,0.4,0.4c0,0.1,0,0.2,0,0.4c0,9.6,0,19.1,0,28.7c0,0.9,0.1,0.7-0.8,0.7c-0.7,0-1.5,0-2.2,0
	c-0.4,0-0.6-0.1-0.8-0.4c-2.4-3.5-4.9-7.1-7.3-10.6c-2.2-3.2-4.4-6.3-6.6-9.5C219,19.1,218.9,19,218.7,18.9
	C218.8,18.9,218.7,18.9,218.7,18.9z"/>
<path class="st0" d="M273,28.5c3.1,3.7,6.3,7.4,9.4,11.1c-0.1,0.2-0.3,0.1-0.4,0.1c-1.6,0-3.2,0-4.7,0c-0.3,0-0.5-0.1-0.7-0.3
	c-3.5-4.2-7-8.4-10.5-12.6c-0.1-0.2-0.2-0.4-0.2-0.6c0-0.4,0-0.9,0-1.3s0-0.4,0.5-0.4c1.6,0,3.1,0,4.7,0c0.7,0,1.4-0.1,2-0.3
	c1.9-0.7,3-2,3.3-4c0.3-2.1-0.3-3.9-2-5.1c-0.8-0.6-1.8-0.9-2.9-1c-2.3,0-4.5,0-6.8,0c-0.3,0-0.4,0.1-0.4,0.4c0,0.1,0,0.3,0,0.5
	c0,8.1,0,16.2,0,24.3c0,0.8,0.1,0.7-0.7,0.7c-1.1,0-2.2,0-3.2,0c-0.4,0-0.4,0-0.4-0.4c0-0.1,0-0.2,0-0.3c0-9.6,0-19.2,0-28.8
	c0-0.7,0-0.7,0.7-0.7c3.4,0,6.8,0,10.2,0c1.2,0,2.5,0.1,3.6,0.6c2.5,0.9,4.3,2.4,5.3,4.8c1.1,2.4,1.3,4.9,0.4,7.4
	c-1.1,3.3-3.5,5.2-6.9,6c-0.1,0-0.2,0.1-0.3,0.1C273.1,28.4,273.1,28.4,273,28.5z"/>
<path class="st0" d="M347.5,35.4c0,0.2,0,0.3,0,0.4c0,1.2,0,2.4,0,3.5c0,0.4,0,0.4-0.4,0.5c-0.1,0-0.2,0-0.3,0c-5.7,0-11.3,0-17,0
	c-0.1,0-0.3,0-0.4,0c-0.2,0-0.3-0.1-0.3-0.3c0-0.1,0-0.3,0-0.4c0-9.6,0-19.2,0-28.8c0-0.1,0-0.1,0-0.2c0-0.5,0-0.5,0.5-0.5
	c5.8,0,11.6,0,17.4,0c0.5,0,0.5,0,0.5,0.5c0,1.1,0,2.2,0,3.3c0,0.6,0,0.6-0.5,0.6c-2.9,0-5.9,0-8.8,0c-1.4,0-2.8,0-4.2,0
	c-0.5,0-0.5,0-0.5,0.5c0,2.5,0,5,0,7.5c0,0.6-0.1,0.5,0.5,0.5c4.2,0,8.3,0,12.5,0c0.7,0,0.7-0.1,0.7,0.6c0,1.1,0,2.2,0,3.2
	c0,0.5,0,0.5-0.5,0.5c-4,0-7.9,0-11.9,0c-0.3,0-0.6,0-0.9,0c-0.4,0-0.4,0-0.4,0.4c0,2.6,0,5.2,0,7.8c0,0.3,0.1,0.4,0.4,0.4
	c0.1,0,0.3,0,0.4,0c4.2,0,8.4,0,12.5,0C347.1,35.4,347.3,35.4,347.5,35.4z"/>
<path class="st0" d="M193.9,24.6c0-4.8,0-9.5,0-14.3c0-0.1,0-0.2,0-0.4c0-0.4,0-0.4,0.4-0.4c2,0,4,0,6.1,0c3.7,0,7.5,0,11.2,0
	c0.1,0,0.3,0,0.4,0c0.2,0,0.3,0.1,0.3,0.3c0,1.3,0,2.5,0,3.8c0,0.2-0.1,0.3-0.3,0.3c-0.1,0-0.3,0-0.5,0c-4.2,0-8.4,0-12.6,0
	c-0.7,0-0.6-0.1-0.6,0.6c0,2.4,0,4.8,0,7.2c0,0.7-0.1,0.6,0.6,0.6c4.1,0,8.3,0,12.4,0c0.7,0,0.6-0.1,0.6,0.6c0,1.1,0,2.2,0,3.3
	c0,0.5,0,0.5-0.5,0.5c-2.4,0-4.9,0-7.3,0c-1.8,0-3.6,0-5.4,0c-0.5,0-0.5,0-0.5,0.5c0,2.5,0,5,0,7.5c0,0.5,0,0.5,0.5,0.5
	c4.2,0,8.5,0,12.7,0c0.1,0,0.2,0,0.4,0c0.4,0,0.4,0,0.4,0.4c0,1.2,0,2.3,0,3.5c0,0.5,0,0.5-0.5,0.5c-4,0-8,0-12,0
	c-1.8,0-3.6,0-5.4,0c-0.5,0-0.5,0-0.5-0.5C193.9,34.4,193.9,29.5,193.9,24.6z"/>
<path class="st0" d="M239.5,24.7c0-4.8,0-9.6,0-14.4c0-0.7,0-0.6,0.6-0.6c5.7,0,11.5,0,17.2,0c0.1,0,0.2,0,0.2,0
	c0.3,0,0.4,0.1,0.4,0.4c0,1.2,0,2.3,0,3.5c0,0.5,0,0.5-0.5,0.5c-1.5,0-3,0-4.6,0c-2.8,0-5.5,0-8.3,0c-0.1,0-0.3,0-0.4,0
	c-0.2,0-0.2,0.1-0.2,0.2c0,0.1,0,0.1,0,0.2c0,2.5,0,5,0,7.5c0,0.5,0,0.5,0.5,0.5c4.2,0,8.4,0,12.6,0c0.7,0,0.6-0.1,0.6,0.6
	c0,1.1,0,2.2,0,3.2c0,0.5,0.1,0.5-0.5,0.5c-4.1,0-8.2,0-12.3,0c-0.8,0-0.8,0-0.8,0.8c0,2.4,0,4.8,0,7.2c0,0.6,0,0.5,0.5,0.5
	c4.3,0,8.6,0,12.9,0c0.7,0,0.6-0.1,0.6,0.6c0,1.1,0,2.1,0,3.2c0,0.6,0,0.6-0.6,0.6c-5.8,0-11.5,0-17.3,0c-0.6,0-0.6,0.1-0.6-0.6
	C239.5,34.3,239.5,29.5,239.5,24.7z"/>
<path class="st0" d="M370.3,17.2c-0.6,0-1.2,0.1-1.8,0.1c-0.7,0-1.5,0.1-2.2,0.1c-0.2,0-0.3,0-0.4-0.2c-0.5-1.8-1.9-2.8-3.7-3.3
	c-2.2-0.6-4.4-0.4-6.4,0.7c-1.1,0.6-1.9,1.4-2.1,2.6c-0.2,0.7-0.2,1.4,0,2.1c0.2,1,0.9,1.7,1.8,2.1c0.7,0.4,1.5,0.6,2.4,0.7
	c1.2,0.2,2.5,0.3,3.7,0.5c2,0.3,3.9,0.7,5.7,1.6c1.9,1,3.2,2.5,3.7,4.6c0.8,3.3-0.2,6.2-2.8,8.4c-1.5,1.3-3.4,2.1-5.4,2.5
	c-3.5,0.7-6.8,0.2-9.8-1.8c-1.9-1.2-3.2-2.9-3.7-5c-0.1-0.5-0.2-1-0.2-1.5c0-0.2,0-0.4,0.3-0.4c1.3,0,2.5,0,3.8-0.1
	c0.2,0,0.3,0.1,0.3,0.3c0.1,1.4,0.9,2.4,2.1,3.2s2.6,1.1,4,1.2c1.8,0.1,3.5-0.3,5-1.3c1.1-0.7,2-1.7,2.1-3.1
	c0.2-1.8-0.5-2.8-1.8-3.5c-0.9-0.4-1.8-0.6-2.7-0.7c-1.5-0.2-3.1-0.3-4.6-0.6c-1.1-0.2-2.2-0.4-3.3-0.8c-3.4-1.3-5.1-3.8-5-7.5
	c0-2.8,1.2-4.9,3.4-6.6c1.7-1.3,3.7-2,5.8-2.2c2.3-0.3,4.5,0,6.6,0.9c2.9,1.3,4.7,3.5,5.2,6.7C370.3,17,370.3,17.1,370.3,17.2z"/>
<path class="st0" d="M321.8,24.7c0,3.3,0,6.6,0,9.9c0,0.1,0,0.3,0,0.4c0,0.2,0.1,0.3,0.3,0.3c0.4,0,0.9,0,1.3,0c1.2,0,2.4,0,3.6,0
	c0.3,0,0.4,0.1,0.4,0.4c0,1.2,0,2.3,0,3.5c0,0.5,0,0.5-0.5,0.5c-4.4,0-8.8,0-13.2,0c-0.5,0-1,0-1.5,0c-0.2,0-0.3-0.1-0.3-0.3
	c0-1.3,0-2.5,0-3.8c0-0.3,0.1-0.3,0.3-0.3c0.9,0,1.7,0,2.6,0c0.8,0,1.5,0,2.3,0c0.3,0,0.4-0.1,0.4-0.4c0-0.1,0-0.2,0-0.3
	c0-6.7,0-13.4,0-20.1c0-0.7,0.1-0.7-0.7-0.7c-1.5,0-3,0-4.5,0c-0.5,0-0.5,0-0.5-0.5c0-1.1,0-2.2,0-3.3c0-0.5,0-0.5,0.5-0.5
	c3.1,0,6.2,0,9.4,0c1.8,0,3.5,0,5.3,0c0.4,0,0.4,0,0.4,0.4c0,1.1,0,2.2,0,3.4c0,0.5,0,0.5-0.5,0.5c-1.5,0-3,0-4.6,0
	c-0.5,0-0.5,0-0.5,0.5C321.8,17.9,321.8,21.3,321.8,24.7z"/>
<path class="st0" d="M123.8,18.8c0,2.7,0,5.4,0,8c0,1.8-0.3,3.6-1.1,5.2c-1.1,2.5-3,4.2-5.3,5.5c-1.8,1-3.8,1.5-5.9,1.9
	c-1.3,0.2-2.5,0.3-3.8,0.3c-0.6,0-0.6,0.1-0.6-0.6c0-1.1,0-2.2,0-3.2c0-0.6-0.1-0.6,0.5-0.6c1.9-0.1,3.8-0.3,5.6-0.9
	c1-0.3,1.9-0.8,2.7-1.3c2.2-1.5,3.3-3.6,3.4-6.2c0-2.5,0-5,0-7.5c0-1.6,0-3.2,0-4.7c0-0.8,0.1-0.8-0.7-0.8c-2.2,0-4.5,0-6.7,0
	c-0.8,0-0.7,0.1-0.7-0.7c0-1.1,0-2.2,0-3.2c0-0.4,0-0.4,0.4-0.4c3.9,0,7.8,0,11.7,0c0.4,0,0.4,0,0.4,0.4
	C123.8,12.9,123.8,15.9,123.8,18.8L123.8,18.8z"/>
<path class="st1" d="M254.6,75.1c0,2.6,0,5.1,0,7.6c0,0.1,0,0.3,0,0.5c0,0.1,0,0.2-0.1,0.2s-0.2-0.1-0.2-0.2s0-0.2,0-0.3
	c0-2.7,0-5.5,0-8.2c0-0.2-0.1-0.4,0.1-0.5c0.2-0.1,0.3,0.2,0.4,0.3c1.8,2.5,3.5,5,5.2,7.5c0.1,0.2,0.2,0.4,0.4,0.5
	c0.1-0.2,0-0.3,0-0.5c0-2.4,0-4.7,0-7c0-0.1,0-0.2,0-0.4c0-0.5,0-0.5,0.5-0.5c1.9,0,3.7,0,5.5,0c0.2,0,0.5-0.1,0.5,0.2
	c0,0.3-0.3,0.1-0.5,0.1c-0.7,0-1.4,0-2.1,0c-0.5,0-0.5,0-0.5,0.5c0,1.7,0,3.3,0,5c0,0.9,0,1.9,0,2.8c0,0.1,0,0.3,0,0.4
	s0,0.2-0.2,0.2c-0.1,0-0.1-0.1-0.1-0.1c0-0.1,0-0.3,0-0.5c0-2.5,0-5,0-7.5c0-0.1,0-0.2,0-0.4c0-0.4,0-0.4-0.5-0.4
	c-0.6,0-1.2,0-1.9,0c-0.4,0-0.4,0-0.4,0.5c0,2,0,3.9,0,5.9c0,0.7,0,1.4,0,2.1c0,0.1,0,0.3-0.1,0.4c-0.2,0-0.2-0.1-0.3-0.2
	c-0.1-0.2-0.3-0.4-0.5-0.7c-1.6-2.4-3.3-4.8-5-7.2C254.9,75.3,254.8,75.1,254.6,75.1z"/>
<path class="st2" d="M194.9,79.6c1.1-1.7,2.3-3.3,3.4-5c0.1-0.1,0.2-0.3,0.3-0.4s0.3-0.1,0.3,0.1c0,0.1,0,0.2,0,0.4
	c0,2.7,0,5.4,0,8.1c0,0.2,0.2,0.5-0.2,0.5c-0.3,0-0.1-0.4-0.1-0.5c0-2.4,0-4.8,0-7.2c0-0.2,0-0.4,0-0.6c-0.2,0-0.3,0.2-0.3,0.3
	c-1,1.4-1.9,2.8-2.9,4.3c-0.5,0.7-0.5,0.7-1,0c-0.9-1.4-1.9-2.8-2.8-4.2c-0.1-0.1-0.2-0.3-0.4-0.5c0,0.3,0,0.5,0,0.7
	c0,2.4,0,4.9,0,7.3c0,0.2,0.2,0.5-0.2,0.5c-0.3,0-0.1-0.4-0.1-0.5c0-2.7,0-5.4,0-8.1c0-0.2-0.1-0.4,0.1-0.5c0.3-0.1,0.3,0.2,0.5,0.3
	c1,1.5,2.1,3.1,3.1,4.6C194.6,79.3,194.7,79.5,194.9,79.6z"/>
<path class="st3" d="M189.8,59.5c0,2.6,0,5.2,0,7.8c0,0.2,0.2,0.5-0.2,0.5c-0.3,0-0.1-0.4-0.1-0.5c0-2.7,0-5.4,0-8.1
	c0-0.2-0.1-0.4,0.1-0.5c0.3-0.1,0.4,0.2,0.5,0.3c1,1.5,2.1,3.1,3.1,4.6c0.1,0.1,0.2,0.4,0.4,0.4c0.1-0.1,0.2-0.3,0.3-0.4
	c1-1.5,2-3,3.1-4.5c0.1-0.1,0.1-0.2,0.2-0.3c0.1-0.1,0.2-0.3,0.4-0.2s0.1,0.2,0.1,0.4c0,2.8,0,5.6,0,8.4c0,0.1,0,0.1,0,0.2
	s0,0.2-0.1,0.2s-0.2-0.1-0.2-0.2s0-0.3,0-0.4c0-2.4,0-4.8,0-7.2c0-0.2,0-0.4,0-0.6c-0.2,0-0.2,0.2-0.3,0.3c-1,1.5-2,2.9-2.9,4.4
	c-0.1,0.1-0.1,0.2-0.2,0.3c-0.1,0.1-0.3,0.2-0.4,0c-0.1-0.1-0.2-0.2-0.2-0.3c-1-1.4-1.9-2.9-2.9-4.3C190.1,59.7,190,59.6,189.8,59.5
	C189.9,59.5,189.8,59.5,189.8,59.5z"/>
<path class="st2" d="M238.7,75c0,0.2,0,0.4,0,0.6c0,2.4,0,4.8,0,7.2c0,0.2,0.2,0.5-0.2,0.5c-0.2,0-0.1-0.3-0.1-0.5
	c0-2.7,0-5.4,0-8.1c0-0.2-0.1-0.4,0.1-0.5c0.3-0.1,0.3,0.2,0.5,0.4c1,1.5,2,3,3.1,4.5c0.1,0.2,0.2,0.4,0.4,0.5
	c0.2-0.1,0.3-0.4,0.4-0.5c1-1.5,2-2.9,3-4.4l0.1-0.1c0.1-0.1,0.2-0.4,0.4-0.3s0.1,0.3,0.1,0.5c0,2.7,0,5.4,0,8.1
	c0,0.2,0.1,0.5-0.2,0.5s-0.1-0.3-0.1-0.5c0-2.5,0-4.9,0-7.3c0-0.2,0-0.4,0-0.6c-0.2,0-0.3,0.2-0.3,0.3c-1,1.5-2,2.9-3,4.4
	c-0.4,0.6-0.4,0.6-0.8,0c-0.9-1.4-1.9-2.8-2.8-4.2c-0.1-0.2-0.2-0.4-0.4-0.5C238.8,75,238.7,75,238.7,75z"/>
<path class="st4" d="M230.5,80c-0.5,0-0.9,0-1.4,0c-0.8,0-1.5,0-2.3,0c-0.1,0-0.2,0-0.2-0.2s0.1-0.2,0.2-0.2c1.4,0,2.7,0,4.1,0
	c0.1,0.6-0.2,1-0.4,1.5c-0.8,1.6-2.9,2.7-4.5,2.4c-2-0.3-3.6-1.9-3.9-3.8c-0.4-2.2,0.8-4.4,2.7-5.2c2.1-0.9,4.8,0.1,5.7,2.1
	c0.1,0.1,0.3,0.3,0,0.4c-0.2,0.1-0.3-0.1-0.4-0.3c-0.7-1.5-2.3-2.5-4.4-2.2c-1.7,0.3-3.1,1.8-3.4,3.6c-0.3,1.9,0.8,4.2,3,4.9
	c2.1,0.6,4.4-0.8,5-2.6C230.4,80.3,230.5,80.1,230.5,80z"/>
<path class="st4" d="M160.7,80c-0.4,0-0.9,0-1.3,0c-0.7,0-1.4,0-2.1,0c-0.1,0-0.2,0-0.3,0s-0.2-0.1-0.2-0.2s0.1-0.1,0.2-0.1
	c0.1,0,0.1,0,0.2,0c1.2,0,2.5,0,3.8,0c0.1,0,0.1,0,0.2,0c0,0.4-0.1,0.8-0.3,1.1c-0.8,1.7-2.2,2.6-4,2.8c-2.2,0.1-4.3-1.7-4.5-4
	c-0.2-2,0.4-3.6,2.1-4.7c2.2-1.4,5.2-0.5,6.3,1.8c0.1,0.1,0.2,0.4,0.1,0.5c-0.2,0.1-0.3-0.1-0.4-0.3c-0.7-1.4-2.3-2.6-4.4-2.2
	c-1.8,0.3-3.2,2-3.4,3.8c-0.2,2.2,1.1,3.8,2.4,4.4c2.6,1.2,5.2-0.6,5.7-2.7C160.7,80.1,160.7,80,160.7,80z"/>
<path class="st5" d="M306.3,64.4c-1.1,0-2.2,0-3.2,0c-0.2,0-0.4,0-0.5,0s-0.2-0.1-0.2-0.2s0.1-0.2,0.2-0.2c0,0,0,0,0.1,0
	c1.4,0,2.7,0,4.1,0c0,0.3,0,0.5-0.1,0.8c-0.6,1.8-2.5,3.2-4.3,3.2c-2,0-3.7-1.4-4.3-3.3c-0.8-2.5,0.7-5.2,3.2-5.9
	c2-0.6,4.2,0.4,5.1,2.3c0.1,0.1,0.3,0.4,0.1,0.5c-0.2,0.1-0.3-0.2-0.4-0.3c-0.6-1.2-1.6-2-3-2.2c-1.7-0.3-3,0.3-4,1.7
	c-1.7,2.4-0.7,5.8,2,6.7C303.2,68.2,305.8,66.8,306.3,64.4z"/>
<path class="st6" d="M373.7,75.1c0,0.2,0,0.4,0,0.6c0,2.4,0,4.8,0,7.2c0,0.2,0.2,0.5-0.2,0.5c-0.3,0-0.1-0.3-0.1-0.5
	c0-2.7,0-5.4,0-8.1c0-0.2-0.1-0.4,0.1-0.5s0.3,0.2,0.4,0.4c1.7,2.5,3.5,5,5.2,7.5c0.1,0.2,0.2,0.4,0.4,0.5c0.2-0.1,0.1-0.3,0.1-0.4
	c0-2.5,0-4.9,0-7.3c0-0.1,0-0.3,0-0.5c0-0.1,0.1-0.1,0.1-0.1c0.1,0,0.1,0.1,0.2,0.1c0,0.1,0,0.2,0,0.4c0,2.7,0,5.5,0,8.2
	c0,0.2,0.1,0.4-0.1,0.5s-0.3-0.2-0.4-0.3c-1.7-2.4-3.4-4.9-5.1-7.3c-0.1-0.2-0.3-0.4-0.5-0.7C373.8,75.1,373.7,75.1,373.7,75.1z"/>
<path class="st7" d="M206.9,75.1c0,0.2,0,0.4,0,0.6c0,2.3,0,4.7,0,7c0,0.1,0,0.3,0,0.5c0,0.1-0.1,0.2-0.2,0.2s-0.1-0.1-0.2-0.2
	c0-0.1,0-0.2,0-0.4c0-2.7,0-5.4,0-8.1c0-0.2-0.1-0.4,0.1-0.5c0.2,0,0.3,0.2,0.4,0.4c1.8,2.5,3.5,5,5.2,7.5c0.1,0.1,0.2,0.3,0.4,0.4
	c0-0.2,0-0.4,0-0.5c0-2.4,0-4.8,0-7.2c0-0.2-0.2-0.5,0.2-0.5c0.2,0,0.1,0.3,0.1,0.5c0,2.7,0,5.4,0,8.1V83c0,0.1,0.1,0.4-0.1,0.4
	c-0.2,0-0.3-0.2-0.4-0.3c-1.5-2.1-3-4.3-4.4-6.4C207.6,76.2,207.3,75.7,206.9,75.1C207,75.1,206.9,75.1,206.9,75.1z"/>
<path class="st8" d="M134.9,82.5c0-0.2,0-0.4,0-0.5c0-2.4,0-4.8,0-7.2c0-0.2-0.2-0.5,0.2-0.5c0.3,0,0.1,0.3,0.1,0.5
	c0,2.7,0,5.4,0,8.1c0,0.2,0.1,0.4-0.1,0.5c-0.2,0.1-0.3-0.2-0.4-0.3c-1.7-2.5-3.4-5-5.2-7.5c-0.1-0.2-0.2-0.3-0.4-0.5
	c-0.2,0.2-0.1,0.4-0.1,0.5c0,2.4,0,4.7,0,7.1c0,0.2,0,0.4,0,0.5s-0.1,0.1-0.2,0.1s-0.1,0-0.2-0.1c0-0.1,0-0.3,0-0.4
	c0-2.7,0-5.4,0-8.1c0-0.2-0.1-0.4,0.1-0.5c0.2-0.1,0.3,0.2,0.4,0.4c1.7,2.5,3.5,5,5.2,7.5c0.1,0.2,0.2,0.3,0.4,0.5
	C134.9,82.5,134.9,82.5,134.9,82.5z"/>
<path class="st9" d="M142.9,82.6c0-0.3,0-0.5,0-0.7c0-2.4,0-4.7,0-7.1c0-0.2-0.2-0.6,0.2-0.5c0.2,0,0.1,0.4,0.1,0.5c0,2.7,0,5.4,0,8
	c0,0.2,0.1,0.5-0.1,0.6c-0.3,0.1-0.4-0.2-0.5-0.4c-1.8-2.5-3.5-5.1-5.3-7.6c-0.1-0.1-0.1-0.1-0.2-0.3c-0.1,0.2-0.1,0.3-0.1,0.5
	c0,2.4,0,4.9,0,7.3c0,0.2,0.2,0.5-0.2,0.5c-0.2,0-0.1-0.4-0.1-0.5c0-2.7,0-5.4,0-8.1c0-0.1,0-0.2,0-0.3c0-0.1,0-0.2,0.1-0.2
	s0.2,0,0.3,0.1s0.2,0.2,0.3,0.4c1.7,2.5,3.4,5,5.2,7.5C142.7,82.3,142.7,82.5,142.9,82.6z"/>
<path class="st10" d="M215.1,64.2c1.3,1.2,2.6,2.4,3.9,3.6c-0.4,0.1-0.4,0.1-0.6-0.1c-0.8-0.7-1.6-1.4-2.4-2.1
	c-0.4-0.4-0.8-0.8-1.2-1.1c-0.1-0.1-0.2-0.2-0.3-0.3c-0.1-0.2-0.1-0.3,0.2-0.3c0.5,0,1,0,1.5,0c0.3,0,0.5,0,0.8-0.1
	c1.1-0.3,1.8-1.3,1.7-2.5c-0.1-1.1-1-2-2.1-2.1c-1-0.1-2,0-3,0c-0.2,0-0.3,0.1-0.3,0.3c0,0.1,0,0.3,0,0.4c0,2.5,0,5,0,7.6
	c0,0.1,0,0.3,0,0.5c0,0.1-0.1,0.1-0.2,0.1c-0.1,0-0.1,0-0.2-0.1c0-0.1,0-0.3,0-0.4c0-2.7,0-5.4,0-8.1c0-0.1,0-0.2,0-0.3
	c0-0.2,0.1-0.3,0.3-0.3c0.3,0,0.7,0,1,0c0.7,0,1.4,0,2.1,0c1.5,0,2.6,1.2,2.7,2.7s-1.1,2.7-2.6,2.7C216,64.1,215.6,64.1,215.1,64.2
	C215.1,64.1,215.1,64.2,215.1,64.2z"/>
<path class="st5" d="M214,83.4c0.4-1.1,0.8-2.1,1.3-3.2c0.7-1.9,1.5-3.8,2.2-5.6c0.1-0.2,0.1-0.5,0.3-0.5c0.3,0,0.3,0.3,0.3,0.5
	c1.1,2.7,2.2,5.5,3.2,8.2c0,0.1,0.1,0.2,0.1,0.4c0,0.1,0.1,0.2,0,0.3c-0.1,0-0.2,0-0.3-0.1c-0.2-0.6-0.5-1.2-0.8-1.8
	c-0.1-0.3-0.2-0.8-0.5-1s-0.7-0.1-1.1-0.1c-0.9,0-1.9,0-2.8,0c-0.5,0-0.5-0.1-0.7,0.5c-0.3,0.8-0.6,1.5-0.9,2.2
	C214.4,83.3,214.3,83.5,214,83.4z"/>
<path class="st4" d="M296.2,74.1c0.6,0,1.3,0.2,1.9,0.6c0.5,0.3,0.8,0.7,0.9,1.3c0,0.1,0.1,0.2,0,0.3l-0.1,0.1h-0.1v-0.1
	c-0.2-1.3-1.7-1.8-2.9-1.7c-0.6,0-1.1,0.2-1.6,0.5c-0.8,0.5-1.1,1.4-0.8,2.3c0.2,0.6,0.6,0.9,1.1,1c0.7,0.2,1.4,0.2,2.2,0.3
	c0.4,0,0.7,0.1,1,0.2c1.9,0.5,1.9,2.6,1,3.6c-0.8,0.8-1.8,1.1-2.9,1c-0.7,0-1.4-0.2-1.9-0.7c-0.5-0.3-0.8-0.8-0.9-1.3
	c0-0.1,0-0.2,0-0.3c0-0.1,0.1-0.1,0.2-0.1c0,0,0.1,0,0.1,0.1s0,0.1,0,0.2c0.1,0.6,0.5,1,1,1.3c1.2,0.7,2.4,0.7,3.6,0
	c0.7-0.4,1.1-1,1.1-1.9c0-0.8-0.4-1.3-1.1-1.5s-1.4-0.3-2-0.3c-0.4,0-0.8-0.1-1.2-0.2c-1.6-0.5-2.1-2.5-0.9-3.7
	C294.2,74.4,295.1,74.1,296.2,74.1z"/>
<path class="st11" d="M261.7,63.3c0,1.4,0,2.7,0,4.1c0,0.1,0.1,0.4-0.1,0.4c-0.3,0-0.2-0.3-0.2-0.4c0-1.2,0-2.4,0-3.6
	c0-0.4,0-0.4-0.5-0.4c-1.5,0-3.1,0-4.6,0c-0.5,0-0.5,0-0.5,0.5c0,1.1,0,2.2,0,3.4c0,0.1,0,0.3,0,0.4s0,0.2-0.2,0.2
	c-0.1,0-0.2-0.1-0.2-0.2s0-0.2,0-0.4c0-2.7,0-5.4,0-8.1c0-0.1,0-0.3,0-0.4c0-0.1,0.1-0.1,0.2-0.1c0.1,0,0.1,0,0.2,0.1
	c0,0.1,0,0.3,0,0.4c0,1.1,0,2.3,0,3.4c0,0.4,0,0.4,0.4,0.4c1.6,0,3.2,0,4.7,0c0.3,0,0.4-0.1,0.4-0.4c0-1.1,0-2.2,0-3.3
	c0-0.1,0-0.2,0-0.4c0-0.1-0.1-0.4,0.2-0.3c0.2,0,0.2,0.2,0.2,0.4c0,1,0,2,0,3.1C261.7,62.5,261.7,62.9,261.7,63.3z"/>
<path class="st5" d="M254.2,61.5c-0.2,0.1-0.4,0-0.4-0.2c-0.2-0.4-0.4-0.7-0.6-1c-1.1-1.2-2.5-1.6-4.1-1.2c-1.6,0.4-2.6,1.5-3,3.1
	c-0.6,2.5,1.1,5,3.8,5.2c1.7,0.1,2.9-0.6,3.8-2c0.1-0.1,0.1-0.2,0.2-0.4c0.1-0.1,0.2-0.2,0.3-0.1c-0.6,1.8-2.6,3-4.7,2.8
	c-2.1-0.3-3.8-2.2-3.9-4.4c-0.1-2.2,1.5-4.2,3.5-4.6C251.3,58.3,253.4,59.4,254.2,61.5z"/>
<path class="st12" d="M321.1,78.7c0-1.4,0-2.7,0-4c0-0.5,0-0.5,0.5-0.5c1.4,0,2.8,0,4.2,0c0.1,0,0.1,0,0.2,0s0.3,0,0.3,0.2
	s-0.2,0.1-0.3,0.1c-0.5,0-1,0-1.5,0c-0.9,0-1.8,0-2.7,0c-0.3,0-0.4,0-0.4,0.4c0,1.1,0,2.2,0,3.4c0,0.3,0.2,0.4,0.4,0.4
	c1.2,0,2.5,0,3.7,0c0.2,0,0.5-0.2,0.5,0.2c0,0.3-0.4,0.1-0.5,0.2c-1.2,0-2.5,0-3.7,0c-0.4,0-0.4,0-0.4,0.4c0,1.1,0,2.2,0,3.3
	c0,0.3,0.1,0.4,0.4,0.4c1.3,0,2.6,0,3.9,0c0.2,0,0.5-0.1,0.5,0.1c0,0.3-0.3,0.2-0.4,0.2c-1.4,0-2.9,0-4.3,0c-0.4,0-0.4,0-0.4-0.5
	C321.1,81.5,321.1,80.1,321.1,78.7z"/>
<path class="st6" d="M225.2,63.3c0-1.4,0-2.8,0-4.2c0-0.4,0-0.5,0.4-0.5c1.4,0,2.9,0,4.3,0c0.1,0,0.2,0,0.3,0s0.1,0,0.1,0.1
	s0,0.2-0.1,0.2s-0.3,0-0.5,0c-1.2,0-2.5,0-3.8,0c-0.5,0-0.5,0-0.5,0.4c0,1.1,0,2.2,0,3.2c0,0.3,0.1,0.4,0.4,0.4c1.3,0,2.5,0,3.8,0
	c0.2,0,0.5-0.1,0.5,0.1c0,0.3-0.3,0.2-0.5,0.2c-1.2,0-2.5,0-3.8,0c-0.4,0-0.4,0-0.4,0.4c0,1.1,0,2.1,0,3.2c0,0.5,0,0.5,0.5,0.5
	c1.2,0,2.5,0,3.8,0c0.2,0,0.5-0.1,0.5,0.1c0,0.3-0.3,0.2-0.5,0.2c-1.4,0-2.8,0-4.2,0c-0.5,0-0.5,0-0.5-0.5
	C225.2,66,225.2,64.7,225.2,63.3z"/>
<path class="st13" d="M341.3,78.8c0-1.4,0-2.7,0-4.1c0-0.5,0-0.5,0.5-0.5c1.4,0,2.7,0,4.1,0h0.1c0.2,0,0.4-0.1,0.4,0.2
	c0,0.2-0.2,0.1-0.4,0.1c-1.2,0-2.5,0-3.7,0c-0.8,0-0.7-0.1-0.7,0.7c0,0.9,0,1.9,0,2.8c0,0.5-0.1,0.5,0.5,0.5c1.2,0,2.4,0,3.6,0
	c0.2,0,0.5-0.1,0.5,0.2c0,0.3-0.3,0.2-0.5,0.2c-1.2,0-2.5,0-3.7,0c-0.5,0-0.5,0-0.5,0.5c0,1.1,0,2.1,0,3.2c0,0.4,0,0.4,0.5,0.4
	c1.3,0,2.6,0,3.9,0c0.1,0,0.4-0.1,0.4,0.1c0,0.3-0.3,0.2-0.4,0.2c-1.4,0-2.9,0-4.3,0c-0.4,0-0.4,0-0.4-0.5
	C341.3,81.6,341.3,80.2,341.3,78.8z"/>
<path class="st12" d="M247.9,78.8c0-1.4,0-2.7,0-4.1c0-0.5,0-0.5,0.5-0.5c1.4,0,2.8,0,4.2,0c0.1,0,0.3,0,0.4,0l0.1,0.1
	c0,0.1,0,0.1-0.1,0.2c-0.1,0-0.3,0-0.5,0c-1.2,0-2.5,0-3.8,0c-0.4,0-0.4,0-0.4,0.5c0,1,0,2.1,0,3.1c0,0.5,0,0.5,0.5,0.5
	c1.2,0,2.4,0,3.6,0c0.2,0,0.5-0.1,0.5,0.2c0,0.3-0.3,0.2-0.5,0.2c-1.2,0-2.5,0-3.7,0c-0.5,0-0.5,0-0.5,0.4c0,1.1,0,2.2,0,3.2
	c0,0.4,0,0.4,0.4,0.4c1.2,0,2.5,0,3.8,0c0.1,0,0.3,0,0.4,0c0.1,0,0.2,0,0.2,0.2s-0.1,0.2-0.3,0.2c-0.8,0-1.5,0-2.3,0
	c-0.7,0-1.5,0-2.2,0c-0.4,0-0.4,0-0.4-0.4C247.9,81.6,247.9,80.2,247.9,78.8z"/>
<path class="st14" d="M281.8,78.8c0-1.4,0-2.7,0-4.1c0-0.5,0-0.5,0.5-0.5c1.4,0,2.8,0,4.2,0c0.1,0,0.2,0,0.3,0
	c0.1,0,0.2,0.1,0.1,0.2c0,0.1-0.1,0.1-0.2,0.1s-0.3,0-0.5,0c-1.2,0-2.5,0-3.7,0c-0.5,0-0.5,0-0.5,0.4c0,1.1,0,2.2,0,3.2
	c0,0.4,0,0.4,0.4,0.4c1.2,0,2.5,0,3.8,0c0.2,0,0.5-0.1,0.5,0.1c0,0.3-0.3,0.2-0.5,0.2c-1.2,0-2.5,0-3.7,0c-0.5,0-0.5,0-0.5,0.5
	c0,1.1,0,2.1,0,3.2c0,0.4,0,0.4,0.5,0.4c1.3,0,2.6,0,3.9,0c0.2,0,0.5-0.1,0.5,0.1c0,0.3-0.3,0.2-0.4,0.2c-1.4,0-2.8,0-4.2,0
	c-0.5,0-0.5,0-0.5-0.5C281.8,81.5,281.8,80.1,281.8,78.8z"/>
<path class="st15" d="M206.7,63.3c0-1.4,0-2.7,0-4.1c0-0.5,0-0.5,0.5-0.5c1.4,0,2.9,0,4.3,0c0,0,0,0,0.1,0s0.4-0.1,0.4,0.2
	c0,0.2-0.2,0.2-0.4,0.2c-1.3,0-2.6,0-3.9,0c-0.6,0-0.5,0-0.5,0.5c0,1,0,2.1,0,3.1c0,0.4,0,0.4,0.4,0.4c1.2,0,2.4,0,3.6,0
	c0.1,0,0.2,0,0.4,0c0.1,0,0.3,0,0.3,0.2s-0.2,0.2-0.3,0.2c-1.2,0-2.5,0-3.7,0c-0.1,0-0.3,0-0.4,0c-0.2,0-0.3,0.1-0.3,0.3
	c0,0.2,0,0.4,0,0.6c0,0.9,0,1.9,0,2.8c0,0.4,0,0.4,0.4,0.4c1.3,0,2.6,0,3.9,0c0.2,0,0.5-0.1,0.5,0.2c0,0.2-0.3,0.1-0.5,0.1
	c-1.4,0-2.8,0-4.2,0c-0.5,0-0.5,0-0.5-0.5C206.7,66,206.7,64.6,206.7,63.3z"/>
<path class="st16" d="M162.2,78.8c0-1.4,0-2.8,0-4.2c0-0.5,0-0.5,0.5-0.5c1.4,0,2.8,0,4.2,0h0.1c0.1,0,0.4,0,0.4,0.2
	s-0.2,0.2-0.4,0.2c-1.3,0-2.6,0-3.9,0c-0.6,0-0.5,0-0.5,0.5c0,1,0,2.1,0,3.1c0,0.4,0,0.4,0.4,0.4c1.2,0,2.5,0,3.8,0
	c0.2,0,0.5-0.1,0.5,0.1c0,0.4-0.3,0.2-0.5,0.2c-1.2,0-2.5,0-3.7,0c-0.5,0-0.5,0-0.5,0.5c0,1,0,2.1,0,3.1c0,0.5,0,0.5,0.5,0.5
	c1.3,0,2.6,0,3.9,0c0.2,0,0.5-0.1,0.5,0.2c0,0.3-0.3,0.2-0.5,0.2c-1.4,0-2.8,0-4.2,0c-0.5,0-0.5,0-0.5-0.5
	C162.2,81.6,162.2,80.2,162.2,78.8z"/>
<path class="st17" d="M200.4,78.8c0-1.4,0-2.8,0-4.2c0-0.4,0-0.4,0.4-0.4c1.5,0,2.9,0,4.3,0c0.1,0,0.2,0,0.2,0
	c0.1,0,0.2,0.1,0.1,0.2c0,0.1-0.1,0.1-0.2,0.1c-0.1,0-0.3,0-0.4,0c-1.2,0-2.5,0-3.7,0c-0.5,0-0.5,0-0.5,0.5c0,1.1,0,2.2,0,3.2
	c0,0.3,0.1,0.4,0.4,0.4c1.2,0,2.5,0,3.8,0c0.2,0,0.5-0.1,0.5,0.2c0,0.3-0.3,0.2-0.5,0.2c-1.2,0-2.5,0-3.7,0c-0.5,0-0.5,0-0.5,0.4
	c0,1.1,0,2.2,0,3.2c0,0.4,0,0.4,0.4,0.4c1.3,0,2.6,0,3.9,0c0.1,0,0.5-0.1,0.4,0.2c0,0.2-0.3,0.2-0.4,0.2c-1.5,0-2.9,0-4.3,0
	c-0.3,0-0.4-0.1-0.4-0.4C200.4,81.6,200.4,80.2,200.4,78.8z"/>
<path class="st18" d="M307.8,63.2c0-1.4,0-2.8,0-4.2c0-0.4,0-0.4,0.4-0.4c1.4,0,2.9,0,4.3,0c0.1,0,0.2,0,0.3,0
	c0.1,0,0.1,0.1,0.1,0.1c0,0.1,0,0.2-0.1,0.2s-0.3,0-0.5,0c-1.2,0-2.5,0-3.7,0c-0.5,0-0.5,0-0.5,0.5c0,1.1,0,2.1,0,3.2
	c0,0.4,0,0.4,0.5,0.4c1.2,0,2.4,0,3.6,0c0.1,0,0.2,0,0.4,0c0.1,0,0.3,0,0.3,0.2s-0.1,0.1-0.3,0.1c-0.4,0-0.7,0-1.1,0
	c-1,0-1.9,0-2.9,0c-0.4,0-0.4,0-0.4,0.4c0,1.1,0,2.2,0,3.2c0,0.4,0,0.5,0.4,0.5c1.2,0,2.5,0,3.7,0c0.1,0,0.3,0,0.4,0s0.2,0,0.2,0.2
	c0,0.1-0.1,0.1-0.2,0.1s-0.1,0-0.2,0c-1.4,0-2.9,0-4.3,0c-0.4,0-0.4,0-0.4-0.4C307.8,66,307.8,64.6,307.8,63.2z"/>
<path class="st19" d="M108.4,78.8c0-1.4,0-2.8,0-4.2c0-0.4,0-0.4,0.4-0.4c1.4,0,2.9,0,4.3,0c0.1,0,0.2,0,0.2,0
	c0.1,0,0.2,0.1,0.1,0.2c0,0.1-0.1,0.1-0.2,0.1s-0.3,0-0.4,0c-1.2,0-2.5,0-3.8,0c-0.4,0-0.4,0-0.4,0.4c0,1.1,0,2.2,0,3.3
	c0,0.3,0.1,0.4,0.4,0.4c1.2,0,2.5,0,3.8,0c0.2,0,0.5-0.1,0.5,0.1c0,0.3-0.3,0.2-0.5,0.2c-1.2,0-2.5,0-3.7,0c-0.4,0-0.4,0-0.4,0.4
	c0,1.1,0,2.2,0,3.2c0,0.4,0,0.4,0.4,0.4c1.3,0,2.6,0,3.9,0c0.2,0,0.5-0.1,0.5,0.1c0,0.3-0.3,0.2-0.4,0.2c-1.4,0-2.8,0-4.2,0
	c-0.4,0-0.4,0-0.4-0.4C108.4,81.6,108.4,80.2,108.4,78.8z"/>
<path class="st19" d="M232,78.8c0-1.4,0-2.8,0-4.2c0-0.4,0-0.5,0.5-0.5c1.4,0,2.8,0,4.2,0c0.1,0,0.2,0,0.3,0s0.2,0.1,0.1,0.2
	c0,0.1-0.1,0.1-0.2,0.1c-0.1,0-0.3,0-0.4,0c-1.2,0-2.5,0-3.7,0c-0.5,0-0.5,0-0.5,0.5c0,1.1,0,2.1,0,3.2c0,0.4,0,0.5,0.4,0.5
	c1.2,0,2.5,0,3.7,0c0.2,0,0.5-0.1,0.5,0.2c0,0.3-0.3,0.1-0.5,0.1c-1.2,0-2.5,0-3.7,0c-0.5,0-0.5,0-0.5,0.4c0,1.1,0,2.2,0,3.2
	c0,0.4,0,0.4,0.4,0.4c1.3,0,2.6,0,3.9,0c0.2,0,0.5-0.1,0.5,0.1c0,0.3-0.3,0.2-0.5,0.2c-1.4,0-2.7,0-4.1,0c-0.5,0-0.5,0-0.5-0.5
	C232,81.5,232,80.2,232,78.8z"/>
<path class="st7" d="M271.1,62.3c0-1,0-2,0-3c0-0.1,0-0.3,0-0.4c0-0.1,0-0.2,0.2-0.2c0.1,0,0.2,0,0.2,0.2c0,0.1,0,0.3,0,0.5
	c0,1.9,0,3.7,0,5.6c0,1.5,0.6,2.3,2.1,2.6c0.9,0.2,1.7,0.1,2.5-0.3s1.2-1.1,1.2-2c0-2,0-4,0-6.1c0-0.2-0.1-0.5,0.2-0.5
	c0.3,0,0.2,0.3,0.2,0.4c0,2,0,4.1,0,6.1c0,0.9-0.4,1.6-1.1,2c-1.2,0.9-3.1,0.9-4.3,0c-0.7-0.5-1.1-1.2-1.1-2
	C271.1,64.3,271.1,63.3,271.1,62.3L271.1,62.3z"/>
<path class="st20" d="M285.2,63.3c0-1.4,0-2.8,0-4.2c0-0.4,0-0.4,0.4-0.4c1.4,0,2.8,0,4.2,0c0.1,0,0.2,0,0.3,0c0.1,0,0.1,0,0.1,0.1
	s0,0.2-0.2,0.2c-0.1,0-0.3,0-0.4,0c-1.2,0-2.5,0-3.7,0c-0.4,0-0.4,0-0.4,0.4c0,1.1,0,2.2,0,3.2c0,0.4,0,0.4,0.4,0.4
	c1.1,0,2.2,0,3.2,0c0.2,0,0.5-0.1,0.5,0.2s-0.3,0.2-0.5,0.2c-1.1,0-2.2,0-3.2,0c-0.4,0-0.4,0-0.4,0.5c0,1.1,0,2.2,0,3.4
	c0,0.1,0,0.3,0,0.4s0,0.2-0.2,0.2c-0.1,0-0.2-0.1-0.2-0.2s0-0.3,0-0.4C285.2,65.9,285.2,64.6,285.2,63.3z"/>
<path class="st21" d="M279.1,63.2c0-1.4,0-2.7,0-4c0-0.6,0-0.5,0.5-0.5c1.3,0,2.7,0,4,0c0.1,0,0.2,0,0.4,0c0.1,0,0.1,0,0.1,0.1
	s0,0.2-0.2,0.2c-0.1,0-0.3,0-0.4,0c-1.2,0-2.5,0-3.7,0c-0.4,0-0.4,0-0.4,0.4c0,1.1,0,2.2,0,3.2c0,0.4,0,0.4,0.4,0.4c1,0,2.1,0,3.1,0
	c0.2,0,0.6-0.2,0.6,0.2s-0.4,0.2-0.5,0.2c-1,0-2.1,0-3.1,0c-0.4,0-0.4,0-0.5,0.5c0,1.1,0,2.3,0,3.4c0,0.1,0,0.3,0,0.4s0,0.2-0.1,0.2
	s-0.2,0-0.2-0.2c0-0.1,0-0.3,0-0.4C279.1,65.9,279.1,64.6,279.1,63.2z"/>
<path class="st22" d="M222,58.7c0.6,0,1.2,0,1.7,0c0.1,0,0.4-0.1,0.3,0.2c0,0.2-0.2,0.2-0.4,0.2c-0.4,0-0.8,0-1.2,0
	c-0.2,0-0.3,0.1-0.3,0.3c0,0.1,0,0.1,0,0.2c0,2.5,0,5,0,7.6c0,0.5,0,0.5,0.5,0.5c0.4,0,0.8,0,1.2,0c0.1,0,0.2,0,0.2,0.1
	c0,0.2-0.1,0.2-0.2,0.2c-0.5,0-1,0-1.5,0c-0.6,0-1.3,0-1.9,0c-0.1,0-0.3,0-0.4,0c-0.1,0-0.2-0.1-0.2-0.2s0.1-0.1,0.2-0.1
	c0.1,0,0.2,0,0.4,0c0.3,0,0.7,0,1,0s0.4-0.1,0.4-0.4c0-0.9,0-1.9,0-2.8c0-1.6,0-3.2,0-4.8c0-0.5,0-0.5-0.5-0.5c-0.4,0-0.7,0-1,0
	c-0.1,0-0.4,0.1-0.4-0.2c0-0.2,0.2-0.2,0.3-0.2C220.8,58.7,221.4,58.7,222,58.7z"/>
<path class="st23" d="M370.1,83.4c-0.6,0-1.1,0-1.7,0c-0.1,0-0.4,0.1-0.4-0.2c0-0.3,0.2-0.2,0.4-0.2c0.4,0,0.8,0,1.2,0
	c0.3,0,0.4-0.1,0.4-0.4c0-0.8,0-1.6,0-2.4c0-1.8,0-3.5,0-5.3c0-0.5,0-0.5-0.5-0.5c-0.4,0-0.7,0-1.1,0c-0.1,0-0.3,0-0.3-0.2
	s0.2-0.2,0.3-0.2c0.3,0,0.5,0,0.8,0c0.8,0,1.7,0,2.5,0c0.1,0,0.3,0,0.4,0s0.1,0.1,0.1,0.1c0,0.1-0.1,0.2-0.2,0.2c-0.4,0-0.7,0-1,0
	c-0.1,0-0.3,0-0.5,0s-0.2,0.1-0.2,0.2s0,0.2,0,0.4c0,2.5,0,4.9,0,7.4c0,0.1,0,0.1,0,0.2c0,0.2,0.1,0.3,0.3,0.3c0.4,0,0.9,0,1.3,0
	c0.1,0,0.2,0,0.3,0.1c0,0.2-0.1,0.2-0.3,0.2C371.3,83.4,370.7,83.4,370.1,83.4z"/>
<path class="st24" d="M173.9,63.3c0-1.4,0-2.7,0-4.1c0-0.2-0.1-0.5,0.1-0.5c0.3,0,0.2,0.3,0.2,0.5c0,2.5,0,5.1,0,7.6
	c0,0.1,0,0.3,0,0.4c0,0.2,0.1,0.3,0.3,0.3c0.5,0,1.1,0,1.6,0c0.8,0,1.6,0,2.4,0c0.1,0,0.2,0,0.4,0c0.1,0,0.2,0,0.2,0.2
	c0,0.1-0.1,0.1-0.2,0.1c-0.1,0-0.2,0-0.3,0c-1.4,0-2.8,0-4.2,0c-0.5,0-0.5,0-0.5-0.5C173.9,66,173.9,64.6,173.9,63.3z"/>
<path class="st18" d="M314.9,78.7c0-1.4,0-2.7,0-4c0-0.2-0.1-0.5,0.2-0.5s0.2,0.3,0.2,0.5c0,2.6,0,5.2,0,7.7c0,0.7-0.1,0.6,0.6,0.6
	c1.2,0,2.4,0,3.6,0c0.1,0,0.3,0,0.4,0s0.1,0,0.2,0.1c0,0.1,0,0.2-0.1,0.2s-0.2,0-0.4,0c-1.4,0-2.8,0-4.2,0c-0.5,0-0.5,0-0.5-0.5
	C314.9,81.5,314.9,80.1,314.9,78.7z"/>
<path class="st25" d="M308.6,78.8c0-1.4,0-2.7,0-4c0-0.2-0.1-0.5,0.2-0.5c0.3,0,0.2,0.3,0.2,0.5c0,2.5,0,5.1,0,7.6
	c0,0.8-0.1,0.7,0.7,0.7c1.2,0,2.5,0,3.8,0c0.1,0,0.4-0.1,0.4,0.1c0,0.3-0.2,0.2-0.4,0.2c-1.5,0-2.9,0-4.4,0c-0.4,0-0.4,0-0.4-0.4
	C308.6,81.6,308.6,80.2,308.6,78.8z"/>
<path class="st26" d="M175,79.4c0.4,0,0.8,0,1.3,0c0.2,0,0.3,0.1,0.3,0.3c0,0.5,0,0.5-0.5,0.5c-0.6,0-1.1,0-1.7,0
	c-0.2,0-0.5,0-0.7,0c-0.4,0-0.3-0.3-0.3-0.5s0-0.4,0.3-0.4C174.1,79.4,174.6,79.4,175,79.4z"/>
<path class="st27" d="M238,63.9c0.4,0,0.8,0,1.3,0c0.4,0,0.3,0.2,0.3,0.4c0,0.2,0.1,0.4-0.3,0.4c-0.9,0-1.8,0-2.6,0
	c-0.2,0-0.3-0.1-0.3-0.3c0-0.5,0-0.6,0.5-0.6C237.3,63.9,237.7,63.9,238,63.9z"/>
<path class="st28" d="M202.7,73.8c0.2-0.3,0.4-0.6,0.7-0.9c0.2-0.2,0.4-0.2,0.6-0.1c-0.5,0.4-0.6,0.9-1.2,1.1
	C202.8,73.9,202.8,73.8,202.7,73.8z"/>
<path class="st29" d="M110.7,73.8c0.2-0.3,0.4-0.5,0.6-0.8c0.2-0.2,0.4-0.3,0.7-0.2C111.6,73.2,111.4,73.7,110.7,73.8
	C110.8,73.9,110.8,73.8,110.7,73.8z"/>
<path class="st0" d="M146.8,25.2c-0.7-0.9-1.7-1.6-2.8-2.1c0.2-0.2,0.3-0.3,0.5-0.4c1.3-1.1,2.1-2.5,2.3-4.2c0.2-1.5-0.1-3-0.7-4.3
	c-1.3-2.9-3.6-4.6-6.9-4.6c-4.1-0.1-8.3,0-12.4,0c-0.4,0-0.4,0-0.4,0.4c0,0.1,0,0.1,0,0.2c0,9.6,0,19.2,0,28.8
	c0,0.7-0.1,0.6,0.6,0.6c4.2,0,8.4,0,12.7,0c0.5,0,1.1,0,1.6-0.1c2.4-0.3,4.4-1.4,5.8-3.5c1-1.4,1.5-3.1,1.6-4.8
	C148.8,29.1,148.3,27,146.8,25.2z M130.6,14.1c0-0.3,0.1-0.4,0.4-0.4c1.4,0,2.7,0,4.1,0c1.2,0,2.4,0,3.5,0c2.2-0.1,3.5,1.4,3.7,3.4
	c0.1,0.9-0.1,1.8-0.5,2.6c-0.6,1.2-1.7,1.9-3,1.9c-2.6,0-5.2,0-7.8,0c-0.3,0-0.4-0.1-0.4-0.4C130.6,18.8,130.6,16.4,130.6,14.1z
	 M143.7,33.1c-0.8,1.5-2,2.3-3.7,2.4c-1.5,0-2.9,0-4.4,0l0,0c-1.5,0-3,0-4.5,0c-0.5,0-0.5,0-0.5-0.4c0-2.9,0-5.8,0-8.7
	c0-0.4,0-0.4,0.4-0.4c3,0,5.9,0,8.9,0c1.8,0,3.3,1,3.9,2.7C144.5,30.1,144.5,31.6,143.7,33.1z"/>
<path class="st0" d="M175.7,19.3c-1.3-3.8-3.7-6.7-7.4-8.4c-2-0.9-4.1-1.3-6.3-1.3c-3.5,0-7,0-10.5,0c-0.7,0-0.6-0.1-0.6,0.6
	c0,4.8,0,9.6,0,14.4s0,9.6,0,14.4c0,0.1,0,0.3,0,0.5c0,0.1,0.1,0.2,0.2,0.2c0.1,0,0.2,0,0.4,0c3.4,0,6.8,0,10.1,0
	c1.2,0,2.4-0.1,3.6-0.3c3.8-0.8,6.8-2.7,8.9-6C176.9,29,177.3,24.2,175.7,19.3z M170.6,30.6c-1.7,2.8-4.2,4.3-7.4,4.7
	c-1,0.1-2.1,0.1-3.1,0.1c-1.5,0-2.9,0-4.4,0c-0.5,0-0.5,0-0.5-0.5c0-3.6,0-7.3,0-10.9c0-3.1,0-6.2,0-9.2c0-0.1,0-0.3,0-0.4
	c0-0.3,0.1-0.4,0.4-0.4c0.8,0,1.6,0,2.4,0c0.4,0,0.7,0,1.1,0l0,0c1,0,2,0,2.9,0c4.9,0.1,8.8,3.2,9.8,8
	C172.6,25,172.3,27.9,170.6,30.6z"/>
<path class="st6" d="M204,62.9c0-0.1,0.1-0.2,0.2-0.2c0.7-0.7,1-1.7,0.6-2.7c-0.3-0.7-0.9-1.2-1.6-1.3c-1.3-0.1-2.5,0-3.8,0
	c-0.2,0-0.2,0.1-0.2,0.2c0,0.1,0,0.3,0,0.4c0,2.6,0,5.3,0,7.9c0,0.1,0,0.2,0,0.4c0,0.2,0.1,0.3,0.3,0.3c0.6,0,1.1,0,1.7,0
	c0.8,0,1.7,0,2.5,0c0.9-0.1,1.5-0.6,1.8-1.4C205.8,65.3,205.5,63.5,204,62.9z M199.7,59c0.5,0,1,0,1.6,0l0,0c0.5,0,1,0,1.5,0
	c1,0,1.8,0.8,1.8,1.9c0,1.1-0.7,1.8-1.7,1.9c-1,0-2.1,0-3.1,0c-0.3,0-0.4-0.1-0.4-0.4c0-1,0-2,0-3.1C199.4,59.1,199.5,59,199.7,59z
	 M203.4,67.5c-1.2,0.1-2.5,0-3.8,0c-0.2,0-0.2-0.1-0.2-0.3c0-0.6,0-1.3,0-1.9s0-1.2,0-1.9c0-0.3,0.1-0.4,0.4-0.4c1.1,0,2.3,0,3.5,0
	s2,0.9,2,2C205.2,66.5,204.6,67.4,203.4,67.5z"/>
<path class="st11" d="M359,80.2c-0.2-0.9-0.7-1.4-1.6-1.8c0.1-0.1,0.2-0.1,0.2-0.1c0.8-0.7,1-1.7,0.7-2.7c-0.3-0.9-1-1.4-2.2-1.4
	c-1,0-2,0-3.1,0c-0.5,0-0.5,0-0.5,0.4c0,2.8,0,5.5,0,8.3c0,0.5,0,0.5,0.5,0.5c1.2,0,2.3,0,3.5,0C358.4,83.5,359.4,81.9,359,80.2z
	 M353,74.9c0-0.2,0-0.4,0.3-0.4c1,0,2.1,0,3.1,0c1.1,0,1.8,0.8,1.8,1.9s-0.8,1.8-1.8,1.9c-0.5,0-1,0-1.4,0c-0.5,0-1,0-1.5,0
	c-0.3,0-0.4,0-0.4-0.4C353,76.9,353,75.9,353,74.9z M358.8,81.4c-0.2,0.9-0.9,1.6-1.8,1.7c-1.2,0.1-2.5,0-3.8,0
	c-0.2,0-0.2-0.1-0.2-0.3c0-0.6,0-1.3,0-2c0-0.6,0-1.2,0-1.9c0-0.2,0.1-0.3,0.3-0.3c1.2,0,2.5,0,3.7,0c0.2,0,0.5,0.1,0.7,0.2
	C358.5,79.3,358.9,80.3,358.8,81.4z"/>
<path class="st5" d="M183.6,58.5c-2.6,0-4.7,2.1-4.7,4.7s2.1,4.7,4.7,4.8c2.6,0,4.7-2.1,4.7-4.7C188.3,60.7,186.2,58.5,183.6,58.5z
	 M183.6,67.6c-2.4,0-4.3-2-4.3-4.4s1.9-4.4,4.4-4.4c2.4,0,4.3,2,4.3,4.4C187.9,65.7,185.9,67.6,183.6,67.6z"/>
<path class="st6" d="M107.1,77.9c-0.3-2-1.8-3.3-3.8-3.6c-1.1-0.1-2.2,0-3.4-0.1c-0.5,0-0.5,0-0.5,0.5c0,1.4,0,2.8,0,4.2
	s0,2.8,0,4.2c0,0.3,0.1,0.4,0.4,0.4c1,0,2,0,3.1,0s2.2-0.4,3-1.3C107.1,80.9,107.4,79.4,107.1,77.9z M106.7,80c-0.5,1.8-1.9,3-3.8,3
	c-0.4,0-0.9,0-1.3,0l0,0c-0.4,0-0.7,0-1,0c-0.8,0-0.7,0.1-0.7-0.7c0-1.1,0-2.2,0-3.3c0-1.4,0-2.7,0-4c0-0.5,0-0.5,0.5-0.5
	c1,0,2-0.1,3,0.1c1.5,0.2,2.9,1.2,3.4,3.2C106.9,78.5,106.9,79.3,106.7,80z"/>
<path class="st3" d="M280.6,78.3c-0.2-2.2-1.7-3.8-3.8-4c-1.1-0.1-2.2,0-3.3-0.1c-0.5,0-0.5,0-0.5,0.5c0,1.4,0,2.7,0,4.1
	s0,2.8,0,4.2c0,0.3,0,0.4,0.4,0.4c1,0,2,0,3.1,0s2.2-0.5,3-1.3C280.4,81,280.7,79.7,280.6,78.3z M279.2,81.8
	c-0.8,0.8-1.7,1.2-2.8,1.2c-0.9,0-1.8,0-2.7,0c-0.3,0-0.4-0.1-0.4-0.4c0-1.3,0-2.6,0-3.9s0-2.5,0-3.8c0-0.4,0-0.5,0.4-0.5
	c1,0,2,0,3,0.1c1.9,0.2,3.3,1.6,3.5,3.7C280.4,79.6,280.1,80.8,279.2,81.8z"/>
<path class="st19" d="M340,77.5c-0.5-1.8-1.8-3-3.7-3.2c-1.1-0.1-2.2,0-3.4-0.1c-0.4,0-0.4,0-0.4,0.5c0,1.4,0,2.8,0,4.2s0,2.8,0,4.2
	c0,0.4,0,0.4,0.4,0.4c1,0,2,0,3,0c1.2,0,2.2-0.4,3-1.3C340.1,80.8,340.4,79.2,340,77.5z M338.6,81.9c-0.7,0.8-1.7,1.2-2.8,1.2
	c-0.9,0-1.8,0-2.7,0c-0.3,0-0.4-0.1-0.4-0.4c0-1.3,0-2.6,0-3.9s0-2.5,0-3.8c0-0.4,0-0.5,0.5-0.4c1,0,2-0.1,3,0.1
	c1.7,0.2,2.8,1.2,3.3,2.9C340,79.1,339.8,80.6,338.6,81.9z"/>
<path class="st5" d="M367.3,83.2c0,0-0.1-0.2-0.1-0.3c-1.1-2.8-2.2-5.6-3.3-8.4c0-0.1-0.1-0.2-0.1-0.3c-0.1-0.2-0.3-0.2-0.4,0
	c-0.1,0.1-0.1,0.3-0.2,0.5c-0.4,1-0.8,2-1.2,3.1c-0.7,1.8-1.4,3.5-2.1,5.3c0,0.1-0.2,0.3,0,0.4s0.3-0.1,0.4-0.3
	c0-0.1,0.1-0.2,0.1-0.3c0.3-0.7,0.6-1.4,0.8-2.1c0.1-0.3,0.2-0.4,0.5-0.4c1.2,0,2.5,0,3.7,0c0.3,0,0.5,0.1,0.6,0.4
	c0.3,0.8,0.6,1.5,0.9,2.2c0,0.1,0.1,0.3,0.2,0.4c0,0,0.1,0,0.2,0C367.3,83.4,367.3,83.4,367.3,83.2z M361.5,80
	c0.7-1.8,1.4-3.5,2-5.2h0.1c0.7,1.7,1.4,3.5,2,5.2C364.2,80,362.9,80,361.5,80z"/>
<path class="st5" d="M307.6,83.1c-0.6-1.5-1.2-3-1.8-4.5c-0.5-1.4-1.1-2.8-1.7-4.2c0-0.1-0.1-0.3-0.3-0.3c-0.2,0-0.2,0.2-0.3,0.3
	c0,0.1-0.1,0.1-0.1,0.2c-0.6,1.5-1.2,3-1.8,4.6c-0.5,1.3-1,2.6-1.5,3.9c0,0.1-0.2,0.3,0,0.4s0.3-0.1,0.3-0.2s0.1-0.1,0.1-0.2
	c0.3-0.7,0.6-1.4,0.9-2.1c0.1-0.3,0.3-0.4,0.6-0.4c1.2,0,2.4,0,3.5,0c0.5,0,0.5,0,0.7,0.5c0.3,0.8,0.6,1.5,0.9,2.2
	c0.1,0.2,0.1,0.4,0.5,0.3C307.6,83.2,307.6,83.1,307.6,83.1z M301.8,80c0.7-1.8,1.4-3.5,2.1-5.4c0.7,1.8,1.4,3.6,2.1,5.3
	C305.5,80.1,303,80.1,301.8,80z"/>
<path class="st5" d="M127.7,83c-0.3-0.7-0.6-1.4-0.9-2.1c-0.8-2.1-1.7-4.3-2.5-6.4c-0.1-0.1-0.1-0.4-0.3-0.4c-0.2,0-0.2,0.2-0.3,0.3
	c-0.2,0.5-0.4,1.1-0.6,1.6c-0.9,2.3-1.9,4.7-2.8,7c0,0.1-0.2,0.3,0,0.3c0.1,0.1,0.2,0,0.3-0.2c0-0.1,0.1-0.2,0.2-0.4
	c0.3-0.7,0.6-1.4,0.8-2c0.1-0.3,0.2-0.4,0.6-0.4c1.2,0,2.5,0,3.7,0c0.3,0,0.4,0.1,0.6,0.4c0.3,0.8,0.6,1.5,0.9,2.2
	c0.1,0.1,0.1,0.3,0.2,0.4c0.1,0,0.1,0,0.2,0s0.1,0,0.1-0.1C127.8,83.2,127.7,83.1,127.7,83z M121.9,80c0.7-1.8,1.4-3.5,2-5.2h0.1
	c0.7,1.7,1.4,3.5,2,5.2C124.7,80,123.3,80,121.9,80z"/>
<path class="st30" d="M215.7,80c0.7-1.8,1.4-3.5,2-5.2h0.1c0.7,1.7,1.4,3.5,2,5.3C218.5,80,217.1,80,215.7,80z"/>
<path class="st9" d="M297.3,67.4c-1.1-2.8-2.2-5.6-3.3-8.4c-0.1-0.2-0.1-0.4-0.3-0.4c-0.3,0-0.3,0.3-0.4,0.5
	c-0.6,1.6-1.2,3.1-1.9,4.7c-0.5,1.3-1,2.5-1.5,3.8c0,0.1-0.1,0.2,0,0.3s0.3,0,0.3-0.2c0-0.1,0.1-0.2,0.1-0.3
	c0.3-0.7,0.6-1.5,0.9-2.2c0.1-0.2,0.2-0.4,0.5-0.4c1.2,0,2.5,0,3.8,0c0.3,0,0.4,0.1,0.5,0.4c0.3,0.8,0.6,1.6,1,2.4
	c0,0.1,0.1,0.3,0.2,0.3c0,0,0.1,0,0.2,0s0.1-0.1,0.1-0.1C297.4,67.6,297.3,67.5,297.3,67.4z M291.5,64.5c0.7-1.8,1.4-3.5,2-5.2h0.1
	c0.7,1.7,1.3,3.4,2,5.2C294.3,64.5,292.9,64.5,291.5,64.5z"/>
<path class="st5" d="M189.8,83c-1.1-2.9-2.3-5.7-3.4-8.6c-0.1-0.1-0.1-0.3-0.3-0.3s-0.2,0.2-0.3,0.4c0,0.1-0.1,0.1-0.1,0.2
	c-0.7,1.7-1.3,3.3-2,5c-0.5,1.2-1,2.5-1.5,3.7c0.4,0.1,0.4-0.1,0.5-0.2c0.3-0.8,0.6-1.6,0.9-2.4c0.1-0.3,0.3-0.4,0.6-0.4
	c1.2,0,2.5,0,3.7,0c0.3,0,0.4,0.1,0.6,0.4c0.3,0.8,0.6,1.6,1,2.4c0.1,0.1,0.1,0.4,0.3,0.3C190,83.3,189.9,83.1,189.8,83z M184,80
	c0.7-1.8,1.4-3.5,2-5.2h0.1c0.7,1.7,1.4,3.5,2.1,5.2C186.8,80,185.5,80,184,80z"/>
<path class="st5" d="M151.8,83.1c-1.1-2.9-2.3-5.8-3.5-8.7c-0.1-0.1-0.1-0.3-0.2-0.3c-0.2,0-0.2,0.1-0.3,0.3c0,0.1-0.1,0.2-0.1,0.3
	c-1.1,2.7-2.1,5.4-3.2,8.1c-0.1,0.1-0.1,0.3-0.2,0.4c0,0.1,0,0.1,0.1,0.2c0.1,0,0.2,0,0.2,0c0.1-0.1,0.1-0.2,0.2-0.4
	c0.3-0.8,0.6-1.5,0.9-2.2c0.1-0.3,0.2-0.4,0.5-0.4c1.2,0,2.5,0,3.8,0c0.3,0,0.4,0.1,0.5,0.3c0.3,0.8,0.6,1.5,0.9,2.3
	c0.1,0.1,0.1,0.3,0.2,0.4c0.1,0,0.1,0,0.2,0c0.1,0,0.1-0.1,0.1-0.2C151.8,83.2,151.8,83.1,151.8,83.1z M145.9,80
	c0.7-1.8,1.4-3.5,2-5.2h0.1c0.7,1.7,1.4,3.5,2,5.2C148.7,80,147.4,80,145.9,80z"/>
<path class="st31" d="M270,67.4c-1.1-2.8-2.2-5.6-3.3-8.4c0-0.1-0.1-0.2-0.1-0.3c-0.1-0.2-0.3-0.2-0.4,0c-0.1,0.1-0.1,0.2-0.1,0.3
	c-0.8,2-1.6,4-2.4,6c-0.4,0.9-0.7,1.8-1,2.6c0,0.1-0.1,0.2,0,0.3c0.1,0,0.2,0,0.3-0.1c0-0.1,0.1-0.2,0.1-0.3
	c0.3-0.7,0.6-1.5,0.9-2.2c0.1-0.3,0.2-0.4,0.5-0.4c1.2,0,2.5,0,3.7,0c0.3,0,0.5,0.1,0.6,0.4c0.3,0.7,0.6,1.5,0.9,2.2
	c0.1,0.1,0.1,0.3,0.2,0.4c0.1,0,0.1,0,0.2,0c0,0,0-0.1,0.1-0.1C270.1,67.6,270.1,67.5,270,67.4z M264.3,64.5
	c0.7-1.8,1.4-3.5,2.1-5.4c0.7,1.9,1.4,3.6,2.1,5.4C267.1,64.5,265.7,64.5,264.3,64.5z"/>
<path class="st11" d="M120.3,76c-0.4-1.1-1.4-1.8-2.6-1.8c-0.9,0-1.9,0-2.8,0c-0.4,0-0.4,0-0.4,0.5c0,1.4,0,2.8,0,4.2
	c0,1.4,0,2.8,0,4.2c0,0.1-0.1,0.4,0.2,0.4c0.2,0,0.2-0.2,0.2-0.4c0-0.1,0-0.1,0-0.2c0-0.8,0-1.5,0-2.3c0-0.6,0-0.5,0.5-0.5
	c0.8,0,1.6,0,2.4,0c0.6,0,1.2-0.2,1.7-0.6C120.4,78.6,120.7,77.2,120.3,76z M118.4,79.5c-0.1,0-0.3,0.1-0.5,0.1c-0.9,0-1.8,0-2.7,0
	c-0.3,0-0.4-0.1-0.4-0.4c0-0.7,0-1.4,0-2.1s0-1.5,0-2.2c0-0.3,0.1-0.4,0.4-0.4c0.9,0,1.7,0,2.6,0c1.3,0.1,2.2,1,2.3,2.2
	C120.2,78.2,119.6,79.2,118.4,79.5z"/>
<path class="st23" d="M170,58.7c-0.9,0-1.8,0-2.7,0c-0.6,0-0.6,0-0.6,0.5c0,1.4,0,2.7,0,4s0,2.6,0,4c0,0.1,0,0.3,0,0.4
	s0,0.2,0.1,0.2c0.2,0,0.2-0.1,0.2-0.2s0-0.3,0-0.4c0-0.8,0-1.6,0-2.4c0-0.4,0-0.4,0.4-0.4c0.8,0,1.6,0,2.4,0c1.6,0,2.6-0.9,2.8-2.5
	C172.9,60.4,172,58.6,170,58.7z M172.4,62c-0.2,1.3-1.1,2.1-2.4,2.1c-0.8,0-1.6,0-2.4,0c-0.3,0-0.4-0.1-0.4-0.4c0-0.7,0-1.5,0-2.2
	s0-1.4,0-2.1c0-0.4,0-0.4,0.4-0.4c0.8,0,1.6,0,2.4,0C171.7,59,172.6,60.5,172.4,62z"/>
<path class="st32" d="M35.2,43H11.5C7.4,43,4,39.7,4,35.5V11.9c0-4.1,3.3-7.5,7.5-7.5h23.7c4.1,0,7.5,3.3,7.5,7.5v23.7
	C42.7,39.7,39.3,43,35.2,43z"/>
<path class="st33" d="M76.3,43H52.7c-4.1,0-7.5-3.3-7.5-7.5V11.9c0-4.1,3.3-7.5,7.5-7.5h23.7c4.1,0,7.5,3.3,7.5,7.5v23.7
	C83.8,39.7,80.5,43,76.3,43z"/>
<path class="st34" d="M35.2,83.5H11.5C7.4,83.5,4,80.2,4,76V52.4c0-4.1,3.3-7.5,7.5-7.5h23.7c4.1,0,7.5,3.3,7.5,7.5v23.7
	C42.7,80.2,39.3,83.5,35.2,83.5z"/>
<path class="st35" d="M76.3,83.5H52.7c-4.1,0-7.5-3.3-7.5-7.5V52.4c0-4.1,3.3-7.5,7.5-7.5h23.7c4.1,0,7.5,3.3,7.5,7.5v23.7
	C83.8,80.2,80.5,83.5,76.3,83.5z"/>
<path class="st36" d="M35.2,21.4c0-0.6-0.2-1.2-0.5-1.8c-0.6-0.9-1.3-1.4-2.4-1.5c-0.7-0.1-1.4,0.1-2.1,0.2c-2.2,0.5-4.4,1-6.6,1.6
	c-0.6,0.1-1.1-0.2-1.1-0.8s0-1.2,0-1.9c0-0.5,0.3-0.8,0.8-0.9c0.7-0.1,1.4-0.1,2.1-0.2c0.8-0.1,1.7-0.2,2.5-0.3s1.7-0.2,2.5-0.2
	c0.1,0,0.2-0.1,0.2-0.2c0-0.6,0-1.3,0-1.9c0-0.1,0-0.2-0.2-0.2c-3.6,0-7.3,0-10.9,0c-0.5,0-1,0.1-1.5,0.3c-2,0.7-3.3,2.6-3.3,4.7
	c0,5.3,0,10.6,0,15.8c2.6,0,5.2,0,7.8,0c0-2.3,0-4.7,0-7c0-0.5,0.2-0.8,0.7-1c1.3-0.4,2.6-0.9,3.8-1.3c1-0.4,2.1-0.7,3.1-1.1
	c0.1-0.1,0.2,0,0.2,0.1c0,0.2,0,0.4,0,0.7c0,0.1,0,0.2,0.2,0.2c1.5,0,3,0,4.5,0c0.2,0,0.2,0,0.2-0.2C35.2,23.5,35.2,22.5,35.2,21.4z
	 M16.7,17.1c0.5-1.2,1.6-2.1,3-2.1c0.9,0,1.7,0,2.7,0c-0.8,0.4-1.3,1-1.4,1.9c-0.1,0.3,0,0.6,0,0.9c0,0.4,0,0.8,0,1.2
	c0,0.1,0,0.1-0.1,0.1c-1.4,0-2.8,0-4.2,0c-0.1,0-0.1,0-0.1-0.1C16.4,18.4,16.4,17.7,16.7,17.1z M33.6,23
	C33.6,23.1,33.6,23.1,33.6,23c-0.6,0.1-1.1,0.1-1.5,0.1C32,23.1,32,23,32,23c0-0.4,0-0.9,0-1.4c0-0.1,0-0.1,0-0.2
	c-1.1,0.4-2.1,0.7-3.1,1.1c-2.1,0.7-4.1,1.4-6.2,2.2c-1.2,0.4-1.8,1.2-1.8,2.5c0,1.7,0,3.5,0,5.2c0,0.2,0,0.2-0.2,0.2
	c-1.4,0-2.8,0-4.1,0c-0.2,0-0.2,0-0.2-0.2c0-3.8,0-7.6,0-11.4c0-0.1,0-0.2,0.2-0.2c1.6,0,3.1,0,4.7,0c0.1,0,0.2,0,0.2,0.1
	c0.7,0.7,1.5,0.9,2.5,0.7c2.2-0.5,4.4-1,6.6-1.6c0.5-0.1,0.9-0.2,1.4-0.2c0.9,0,1.4,0.7,1.5,1.2C33.7,21.7,33.6,22.3,33.6,23z"/>
<path class="st36" d="M72.6,26.7c-0.1-1.1-0.4-2.1-0.9-3.1c-0.5-0.9-1.2-1.6-1.9-2.2c-1.7-1.5-2.3-3.4-2-5.6
	c0.1-0.8,0.2-1.6,0.3-2.4l0,0c-0.7,0.4-1.4,0.8-2.2,1.2c-1.2,0.6-2.2,1.4-3.1,2.5c-1.1,1.4-1.8,2.9-2,4.7c0,0.1-0.1,0.1-0.2,0.1
	c-0.8-0.2-1.7-0.5-2.5-0.7c-0.1,0-0.2,0-0.3,0.1c-0.7,1.5-1.2,3.1-1.4,4.7c-0.1,1.2-0.1,2.3,0.2,3.4c0.8,2.6,2.5,4.3,5.2,5.1
	c1.5,0.4,3.1,0.4,4.6,0.2c1.8-0.3,3.3-1.2,4.5-2.6C72.2,30.4,72.7,28.7,72.6,26.7z M67.5,31.4c-0.3,1.1-1,1.7-2.1,2
	c-0.8,0.2-1.7,0.2-2.5-0.2c-1.1-0.6-1.7-1.7-1.5-2.9c0.1-0.5,0.2-0.9,0.3-1.4c0-0.1,0.1-0.1,0.2-0.1c0.5,0.1,1,0.3,1.5,0.4
	c0.2,0.1,0.2,0,0.2-0.1c0-0.5,0-1.1,0.1-1.6c0.2-0.8,0.7-1.5,1.5-2c0,0.8,0.2,1.5,0.6,2.2c0.2,0.4,0.6,0.7,0.9,1.1
	C67.6,29.4,67.8,30.3,67.5,31.4z M71.3,27.8c-0.2,1.9-1.1,3.5-2.7,4.6c0,0-0.1,0.1-0.2,0.1c0.1-0.3,0.3-0.6,0.3-1
	c0.3-1.5-0.1-2.7-1.2-3.8c-0.4-0.4-0.8-0.8-1-1.4c-0.2-0.5-0.2-1-0.1-1.6c0.1-0.5,0.1-1.1,0.2-1.7c-0.6,0.4-1.3,0.7-1.9,1
	s-1.1,0.8-1.5,1.3c-0.4,0.6-0.7,1.2-0.9,1.9c0,0.1-0.1,0.1-0.2,0.1c-0.3-0.1-0.7-0.2-1-0.3c-0.1,0-0.2,0-0.2,0.1
	c-0.4,0.9-0.7,1.8-0.8,2.7c-0.1,0.8,0,1.6,0.3,2.4c-0.1-0.1-0.2-0.1-0.3-0.2c-0.1-0.1-0.2-0.1-0.3-0.2s-0.2-0.2-0.3-0.2
	c-1.1-1-1.8-2.3-2-3.8c-0.1-1,0-2.1,0.2-3.1c0.2-0.8,0.4-1.5,0.7-2.2c0.1-0.1,0.1-0.1,0.2-0.1c1,0.3,2,0.6,3,0.9
	c0.2,0.1,0.2,0,0.2-0.1c0-0.9,0-1.7,0.3-2.6c0.7-2.3,2.1-4,4.2-5.1l0,0c0,0.2,0,0.5,0,0.7c-0.1,2.4,0.7,4.4,2.6,6.1
	c0.6,0.6,1.2,1.1,1.6,1.8C71.2,25.4,71.5,26.5,71.3,27.8z"/>
<path class="st36" d="M77.2,60.5c-0.4-0.4-0.9-0.6-1.4-0.5c-0.2,0-0.3,0-0.3-0.2c0-0.9,0-1.8,0-2.7c0-0.3,0-0.6-0.1-0.9
	c-0.2-0.8-1-1.4-1.8-1.4c-0.9-0.1-1.6,0.3-2,1c-0.3,0.5-0.3,1.1-0.3,1.7c0,0.2,0.3,0.4,0.5,0.4c0.3,0,0.5-0.2,0.5-0.5
	c0-0.2,0-0.5,0.1-0.7c0-0.4,0.3-0.7,0.7-0.9c0.7-0.3,1.4,0.2,1.4,1.1c0,1,0,1.9,0,2.8c0,0.2-0.1,0.3-0.3,0.3c-4.7,0-9.5,0-14.2,0
	c-2,0-4,0-6,0c-0.6,0-1.1,0.2-1.5,0.6c-0.2,0.2-0.2,0.4-0.3,0.6c0,0.2,0,0.4,0,0.6c0.2,0.5,0.4,0.9,0.9,1.1c0.2,0.1,0.2,0.1,0.2,0.3
	c0,0.8-0.1,1.6,0.1,2.3c0.3,2,1.3,3.6,3,4.8c0.1,0.1,0.2,0.2,0.2,0.3c0,0.8,0,1.6,0,2.4c0,0.4,0.2,0.6,0.6,0.6c0.3,0,0.6,0,0.9,0
	c0.3,0,0.5-0.1,0.6-0.4c0.3-0.5,0.5-1.1,0.8-1.6c0.1-0.1,0.1-0.2,0.2-0.1c0.3,0,0.7,0,1,0c3.2,0,6.4,0,9.6,0c0.1,0,0.2,0,0.3,0.2
	c0.3,0.5,0.5,1,0.8,1.6c0.1,0.3,0.3,0.4,0.7,0.4c0.3,0,0.5,0,0.8,0c0.5,0,0.7-0.2,0.7-0.7c0-0.8,0-1.6,0-2.3c0-0.1,0-0.2,0.2-0.3
	c0.4-0.3,0.8-0.6,1.1-0.9c1.1-1.2,1.7-2.5,1.9-4.1c0.1-0.7,0-1.4,0-2.1c0-0.1,0.1-0.2,0.2-0.3C77.6,62.5,77.9,61.3,77.2,60.5z
	 M58.5,61.2c0-0.1,0-0.2,0.2-0.2c0.8,0,1.6,0,2.5,0c0.8,0,1.6,0,2.4,0c0.1,0,0.2,0,0.2,0.2c0,1.6,0,3.2,0,4.8c0,0.2-0.1,0.2-0.2,0.2
	c-1.6-0.3-3.3-0.5-4.9-0.8c-0.1,0-0.2-0.1-0.2-0.2C58.5,63.9,58.5,62.6,58.5,61.2z M53.2,61.6c0-0.3,0.2-0.5,0.6-0.5
	c1.2,0,2.3,0,3.5,0c0.1,0,0.2,0,0.2,0.2c0,0.3,0.1,0.7,0,0.8c-0.1,0.2-0.5,0-0.8,0c-0.4,0-0.7,0-1.1,0c-0.6,0-1.1,0-1.7,0
	C53.4,62.1,53.2,61.9,53.2,61.6z M58.2,71.6c-0.2,0.4-0.3,0.7-0.5,1.1c0,0.1-0.1,0.1-0.2,0.1c-0.1,0-0.1-0.1-0.1-0.1
	c0-0.5,0-0.9,0-1.4c0.2,0.1,0.5,0.2,0.7,0.2C58.3,71.4,58.2,71.5,58.2,71.6z M72.2,72.7c-0.1,0-0.1,0-0.2-0.1
	c-0.2-0.4-0.4-0.7-0.6-1.1c0-0.1,0-0.1,0.1-0.1c0.2-0.1,0.5-0.1,0.7-0.2C72.2,71.7,72.2,72.2,72.2,72.7
	C72.3,72.6,72.3,72.7,72.2,72.7z M75.4,65.8c-0.2,1.2-0.8,2.3-1.7,3.2c-1.2,1.1-2.6,1.6-4.2,1.6c-3.1,0-6.2,0-9.2,0
	c-2.5,0-4.3-1.2-5.4-3.4c-0.3-0.7-0.5-1.4-0.5-2.2c0-0.5,0-1.1,0-1.6c0-0.1,0-0.2,0.2-0.2c0.9,0,1.9,0,2.8,0c0.2,0,0.2,0.1,0.2,0.2
	c0,0.8,0,1.5,0,2.2c0,0.5,0.1,0.7,0.6,0.8c1.9,0.3,3.8,0.6,5.6,0.9c0.2,0,0.3,0.1,0.4,0.1c0.4,0.1,0.7-0.1,0.7-0.6
	c0-1.1,0-2.2,0-3.4c0-0.2,0.1-0.2,0.2-0.2c1.7,0,3.4,0,5.1,0s3.4,0,5.1,0c0.2,0,0.2,0,0.2,0.2C75.4,64.2,75.5,65,75.4,65.8z
	 M76.5,61.6c0,0.2-0.2,0.4-0.5,0.5c-0.1,0-0.2,0-0.2,0c-1.8,0-3.5,0-5.3,0s-3.6,0-5.4,0c-0.2,0-0.2,0-0.2-0.2c0-0.3-0.1-0.6,0.1-0.8
	c0.1-0.1,0.5,0,0.8,0c3.4,0,6.7,0,10.1,0c0.1,0,0.2,0,0.4,0C76.4,61.2,76.5,61.4,76.5,61.6z"/>
<path class="st36" d="M34.2,56.6c0-0.4-0.3-0.5-0.6-0.4c-0.1,0-0.1,0.1-0.2,0.1c-1.1,0.6-2.1,1.1-3.1,1.7c-0.2,0.1-0.2,0.1-0.3-0.1
	c-0.2-0.3-0.3-0.6-0.5-1c-0.2-0.3-0.2-0.6,0-0.9c0.1-0.1,0.2-0.2,0.4-0.3c1.1-0.6,2.2-1.2,3.3-1.8c0.2-0.1,0.3-0.2,0.4-0.5
	c0.2-0.6-0.2-1.2-0.8-1.2c-1.6,0-3.2-0.1-4.8-0.1c-0.2,0-0.4,0-0.6,0c-1.3,0.2-2.1,0.9-2.5,2.1c-0.5,1.5-1.1,3.1-1.5,4.7
	c-0.5,1.5-1.3,2.8-2.4,3.9c-3.2,3.2-6.4,6.4-9.6,9.6c-1.7,1.6-1.1,4.3,1,5c0.2,0.1,0.3,0,0.5,0.2c0.3,0,0.6,0,0.9,0
	c1-0.2,1.6-0.8,2.3-1.5c3.7-3.7,7.4-7.4,11.1-11.1c0.2-0.2,0.4-0.4,0.6-0.5c1.2-0.9,2.4-1.7,3.7-2.6c0.8-0.6,1.5-1.3,2-2.2
	C34,58.7,34.3,57.7,34.2,56.6z M30.7,61.4c-1.2,0.8-2.4,1.7-3.5,2.5c-0.1,0.1-0.3,0.2-0.4,0.3c-4,4-7.9,7.9-11.8,11.8
	c-0.7,0.7-1.7,0.9-2.5,0.5c-1.2-0.6-1.5-2.2-0.7-3.2c0.1-0.1,0.2-0.2,0.3-0.3c3.2-3.2,6.3-6.4,9.5-9.5c1.3-1.2,2.2-2.7,2.7-4.4
	c0.5-1.5,1-3.1,1.5-4.6c0.3-1,1.2-1.6,2.2-1.5c1.6,0,3.2,0.1,4.8,0.1c-0.1,0.1-0.2,0.1-0.2,0.2c-1,0.6-2.1,1.1-3.1,1.7
	c-0.8,0.4-1.1,1.2-0.9,2c0.1,0.2,0.1,0.4,0.2,0.5c0.7,1.2,1.3,2.4,2,3.6C30.8,61.2,30.8,61.3,30.7,61.4z M33,58.7
	c-0.3,0.7-0.7,1.3-1.3,1.9c-0.1,0.1-0.2,0.1-0.2,0c-0.3-0.5-0.6-1.1-0.9-1.6c-0.1-0.1-0.1-0.1,0-0.2c0.9-0.5,1.8-1,2.7-1.4
	c0,0,0,0,0.1,0C33.3,57.8,33.2,58.3,33,58.7z"/>
<path class="st36" d="M25.3,63.1c-0.5-0.7-1.4-0.8-2-0.1c-0.6,0.5-1.1,1.1-1.6,1.6c-2.1,2.1-4.2,4.2-6.3,6.3c-0.3,0.3-0.5,0.6-0.5,1
	c0,0.3,0.1,0.6,0.3,0.9c0.5,0.5,1.3,0.5,1.9,0c2.7-2.6,5.3-5.3,7.9-7.9c0.1-0.1,0.2-0.2,0.3-0.3C25.6,64.1,25.6,63.5,25.3,63.1z
	 M24.4,64.2c-0.7,0.7-1.4,1.4-2.2,2.1c-1.9,1.9-3.8,3.8-5.7,5.7c-0.1,0.1-0.1,0.1-0.2,0.2c-0.2,0.1-0.4,0.1-0.5-0.1
	c-0.2-0.1-0.2-0.3-0.1-0.5c0-0.1,0.1-0.1,0.2-0.2c2.6-2.6,5.3-5.3,7.9-7.9c0.1-0.1,0.2-0.2,0.3-0.2c0.2,0,0.5,0.1,0.5,0.4
	C24.7,64,24.6,64.1,24.4,64.2z"/>
<path class="st36" d="M29,60c-0.3-0.6-0.7-1.2-1.1-1.8c-0.2-0.4-0.6-0.5-0.9-0.5c-1,0-1.7,1-1.3,1.8c0.3,0.6,0.7,1.2,1.1,1.8
	c0.4,0.5,1.1,0.7,1.7,0.3C29.1,61.3,29.3,60.6,29,60z M28.1,60.9c-0.2,0.1-0.5,0.1-0.6-0.2c-0.3-0.5-0.6-1-0.9-1.5
	c-0.2-0.3,0-0.7,0.4-0.7c0.2,0,0.3,0.1,0.4,0.2c0.3,0.5,0.6,1,0.9,1.5C28.4,60.5,28.3,60.8,28.1,60.9z"/>
<path class="st36" d="M13.7,73c-0.7,0-1.3,0.5-1.3,1.3c0,0.7,0.6,1.3,1.2,1.3c0.7,0,1.3-0.6,1.3-1.3C15,73.6,14.4,73,13.7,73z
	 M13.7,74.7c-0.2,0-0.4-0.2-0.4-0.4c0-0.2,0.2-0.4,0.4-0.4s0.4,0.2,0.4,0.4C14.1,74.5,13.9,74.7,13.7,74.7z"/>
</svg>
