<?xml version="1.0" encoding="utf-8"?>
<!-- Generator: Adobe Illustrator 26.1.0, SVG Export Plug-In . SVG Version: 6.00 Build 0)  -->
<svg version="1.1" id="Calque_1" xmlns="http://www.w3.org/2000/svg" xmlns:xlink="http://www.w3.org/1999/xlink" x="0px" y="0px"
	 viewBox="0 0 600 650" style="enable-background:new 0 0 600 650;" xml:space="preserve">
<style type="text/css">
	.st0{fill:#2D5A6E;}
	.st1{fill:#476F7F;}
	.st2{fill:#FDFDFD;}
	.st3{fill:#FCFCFD;}
	.st4{fill:#E3E8EC;}
	.st5{fill:#FCFDFD;}
	.st6{fill:#E4E9ED;}
	.st7{fill:#E4EAED;}
	.st8{fill:#E3E9EC;}
	.st9{fill:#E2E8EB;}
	.st10{fill:#E5EAED;}
	.st11{fill:#F8F9FA;}
	.st12{fill:#E0E5E8;}
	.st13{fill:#507686;}
	.st14{fill:#DBE1E4;}
	.st15{fill:#DCE2E5;}
	.st16{fill:#DFE4E7;}
	.st17{fill:#DEE4E7;}
	.st18{fill:#E1E6E9;}
	.st19{fill:#D4DCE0;}
	.st20{fill:#E7EBED;}
	.st21{fill:#DEE3E6;}
	.st22{fill:#DDE3E5;}
	.st23{fill:#F5F7F7;}
	.st24{fill:#D8DEE1;}
	.st25{fill:#DBE2E5;}
	.st26{fill:#94AAB4;}
	.st27{fill:#00405D;}
	.st28{fill:#00445E;}
	.st29{fill:#00455F;}
	.st30{fill:#7B96A2;}
	.st31{fill:#2C5B6F;}
	.st32{fill:#2D5B6F;}
	.st33{fill:#295A6E;}
	.st34{fill:#315F72;}
	.st35{fill:#2F5D70;}
</style>
<g>
	<g>
		<path class="st0" d="M0.1,325C0.1,218.03,0.12,111.06,0,4.09C0,0.67,0.67,0,4.09,0c197.27,0.11,394.54,0.11,591.81,0
			c3.42,0,4.09,0.67,4.09,4.09c-0.1,213.94-0.1,427.88,0,641.81c0,3.42-0.67,4.1-4.09,4.09c-197.27-0.11-394.54-0.11-591.81,0
			c-3.42,0-4.1-0.67-4.09-4.09C0.12,538.94,0.1,431.97,0.1,325z"/>
		<path class="st1" d="M253.56,388.84c2.33-1.96,5.23-2.22,7.88-2.65c22.57-3.64,45.34-3.47,68.1-3.12
			c13.69,0.21,27.37,1.05,40.95,2.9c1.59,0.22,3.73-0.26,3.9,2.05c0.12,1.68-1.43,2.94-2.98,2.66c-6.06-1.11-11.85,1.02-17.71,1.58
			c-8.16,0.78-16.29,0.2-24.39,0.77c-12.27,0.86-24.51-0.3-36.76-0.05c-10.15,0.2-20.25-0.64-30.2-2.53
			C259.5,389.91,256.03,392.81,253.56,388.84z"/>
		<path class="st2" d="M430.3,488.21c0,6.16,0.15,12.32-0.06,18.47c-0.1,2.97,1.6,7.67-3.68,7.6c-4.77-0.07-3.36-4.44-3.46-7.37
			c-0.15-3.99-0.2-7.99,0.02-11.97c0.15-2.72-0.89-3.34-3.41-3.3c-8.32,0.13-16.64,0.19-24.95-0.02c-3.28-0.08-3.89,1.26-3.77,4.12
			c0.19,4.48,0,8.98,0.06,13.47c0.03,2.76-0.48,5.22-3.84,5.18c-2.99-0.04-3.73-2.24-3.72-4.86c0.02-14.14-0.01-28.28,0.03-42.43
			c0.01-2.48,0.56-4.85,3.69-4.91c3.52-0.07,3.81,2.54,3.83,5.19c0.02,4.66,0.12,9.32-0.02,13.97c-0.08,2.55,0.74,3.52,3.41,3.48
			c8.48-0.14,16.97-0.15,25.45,0c2.78,0.05,3.33-1.09,3.25-3.54c-0.14-4.82-0.02-9.65-0.04-14.47c-0.01-2.65,0.75-4.7,3.85-4.64
			c2.97,0.06,3.35,2.27,3.36,4.56c0.03,7.15,0.01,14.31,0.01,21.46C430.28,488.21,430.29,488.21,430.3,488.21z"/>
		<path class="st2" d="M180.86,495.62c0.01-4.83-0.01-9.65,0.01-14.48c0.01-1.75,0.37-3.4,2.32-3.96c1.56-0.45,3.19-0.19,3.9,1.35
			c1.02,2.2,1.89,1.27,3.32,0.43c6.58-3.88,12.42-3.39,18.22,1.67c1.47,1.28,2.12,1.38,3.53,0.04c5.17-4.92,11.34-5.32,17.61-2.86
			c6.21,2.44,7.37,8.15,7.54,14c0.18,6.15,0.05,12.32,0.05,18.48c0,2.23-0.73,4.11-3.26,4.12c-2.52,0.01-3.29-1.79-3.29-4.07
			c0-5.66,0.1-11.32-0.07-16.98c-0.22-7.18-3.04-10.54-8.54-10.58c-5.61-0.04-9.14,3.82-9.38,10.62c-0.18,5.32-0.1,10.65-0.06,15.98
			c0.02,2.56-0.41,4.94-3.49,4.99c-3.2,0.05-3.44-2.43-3.43-4.95c0.04-5.49,0.1-10.99-0.03-16.48c-0.14-6.51-2.84-9.86-7.91-10.14
			c-5.62-0.31-9.49,2.99-10,9.42c-0.46,5.79-0.23,11.64-0.19,17.47c0.02,2.42-0.47,4.55-3.24,4.68c-3.18,0.16-3.66-2.19-3.64-4.76
			C180.88,504.95,180.85,500.28,180.86,495.62z"/>
		<path class="st2" d="M92.04,514.88c-12.82,0.04-22.77-6.89-25.77-17.96c-3.46-12.74,0.98-25.45,11.02-31.55
			c10.14-6.16,24.94-4.71,33.42,3.37c1.89,1.8,4.46,3.94,1.99,6.74c-2.73,3.1-4.86,0.66-7-1.42c-7.81-7.59-20.72-7.48-27.85,0.12
			c-7.23,7.7-6.89,21.9,0.69,29.05c7.65,7.21,20.36,6.68,27.79-1.28c1.91-2.05,3.85-4.51,6.54-1.93c2.75,2.64,0.65,5.1-1.46,7.23
			C106.44,512.26,99.9,514.85,92.04,514.88z"/>
		<path class="st3" d="M266.1,498.51c-3.82,0-7.65,0.09-11.47-0.03c-2.87-0.09-2.96,1.07-1.98,3.31c2.94,6.73,12.6,9.18,19.26,4.77
			c0.96-0.64,1.79-1.47,2.66-2.25c1.57-1.41,3.26-1.84,4.83-0.21c1.8,1.86,0.93,3.6-0.58,5.22c-8.26,8.94-26.16,6.93-32.12-3.63
			c-4.58-8.12-2.61-19.56,4.31-24.99c7.51-5.89,19.29-5.6,26.2,0.71c2.24,2.05,3.86,4.52,4.75,7.47c2.17,7.2,0.47,9.59-6.9,9.62
			C272.08,498.52,269.09,498.51,266.1,498.51z"/>
		<path class="st2" d="M157.07,498.51c-3.49,0-7,0.21-10.48-0.05c-4.46-0.34-3.8,1.69-2.3,4.32c3.61,6.3,13.04,7.98,19.26,3.43
			c0.67-0.49,1.29-1.05,1.88-1.63c1.64-1.6,3.47-2.31,5.17-0.36c1.65,1.9,0.76,3.79-0.87,5.24c-6.44,5.72-13.92,6.76-21.9,4.28
			c-9.06-2.81-13.5-11.31-11.85-22c1.4-9.07,8.82-15.14,18.72-15.3c9.4-0.16,17.15,5.8,18.9,14.53c1.07,5.32-0.63,7.45-6.06,7.54
			C164.06,498.55,160.57,498.51,157.07,498.51z"/>
		<path class="st4" d="M324.57,245.46c2.64,2.53,4.17,5.91,6.31,1.64c0.2-0.4,1.21-0.67,1.77-0.58c5.53,0.96,10.87,0.52,16.16-1.45
			c2.2-0.82,2.9,1.01,3.25,2.72c1.11,5.42,0.39,10.93,0.81,16.39c0.1,1.33-0.87,2.07-1.98,2.6c-4.65,2.24-9.56,2.58-14.6,2
			c-1.71-0.2-2.65-1.21-2.97-2.87c-1.01-5.22-3.67-4.68-6.95-1.99c-0.38,0.32-0.74,0.72-1.18,0.91c-2.97,1.32-6.02,2.19-8.82-0.21
			c-1.77-1.52-2.29-9.05-0.98-10.92c0.74-1.06,1.8-1.61,2.99-1.41C322.73,253.01,325.1,251.44,324.57,245.46z"/>
		<path class="st5" d="M521.62,495.89c-0.06,11.42-7.98,19.03-19.76,18.99c-11.51-0.04-19.61-8.09-19.49-19.35
			c0.12-11.24,8.43-19.23,19.85-19.09C513.79,476.57,521.67,484.48,521.62,495.89z"/>
		<path class="st6" d="M335.1,294.07c-2.68,0-5.9,0.35-5.61-4.71c0.2-3.33-2.14-2.56-4.13-1.6c-2.79,1.35-5.16,3.52-8.67,3.37
			c-3.03-0.13-4.18-1.3-4.06-4.24c0.28-6.87,2.06-8.81,9-9.52c0.49-0.05,1-0.07,1.48-0.17c2.8-0.56,1.91-4.91,4.15-4.87
			c1.63,0.03,3.13,2.64,5.02-0.06c0.71-1.02,2.1-0.85,3.27-0.68c4.86,0.68,9.64,0.44,14.26-1.28c2.99-1.11,4.06,0.13,3.82,3
			c-0.47,5.7-2.96,10.89-4.17,16.41c-0.26,1.2-1.48,1.72-2.62,2.1C343.2,293.01,339.55,294.17,335.1,294.07z"/>
		<path class="st6" d="M298.19,170.84c2.86,2.23,4.34,5.33,6.98,1.39c0.79-1.18,2.84-0.31,4.31-0.21c3.86,0.26,7.72,0.24,11.31-1.32
			c2.87-1.24,4.39-0.28,5.28,2.46c1.69,5.23,3.38,10.46,5.16,15.65c0.75,2.2-0.54,2.99-2.12,3.8c-6.16,3.18-13.57,1.76-18-3.65
			c-1.9-2.33-3.77-2.67-5.77-0.38c-2.74,3.14-6.31,3.5-9.49,1.74c-3.72-2.06-4.78-6.25-5.4-10.25c-0.28-1.8,1.12-2.8,2.85-2.67
			C297.57,177.75,300.76,177.24,298.19,170.84z"/>
		<path class="st7" d="M308.06,195.19c2.91,3.41,4.78,5.09,7.35,1.89c0.64-0.79,3.15-0.09,4.8-0.06c2.99,0.05,6.15,0.52,8.83-0.91
			c4.45-2.38,6.29-0.39,7.5,3.64c1.39,4.61,2.8,9.22,4.5,13.72c0.81,2.15-0.05,3.04-1.69,3.92c-6.35,3.42-13.84,2.09-18.44-3.52
			c-1.97-2.4-3.71-2.47-5.69-0.2c-2.72,3.14-6.4,3.42-9.47,1.6c-3.77-2.23-4.88-6.55-5.23-10.77c-0.13-1.58,1.41-2.3,2.84-2.04
			C308.1,203.32,309.67,201.25,308.06,195.19z"/>
		<path class="st8" d="M290.97,146.77c2.52,1.99,4.33,3.97,6.36,0.49c0.56-0.96,2.17-0.39,3.31-0.3c4.49,0.35,8.99,0.5,13.23-1.37
			c2.61-1.15,3.64,0.09,4.3,2.34c1.6,5.41,1.6,11.16,3.79,16.46c0.77,1.85-1,2.53-2.39,3.13c-3.28,1.41-6.73,1.48-10.23,1.63
			c-4.27,0.19-6.1-2.43-8-5.53c-1.54-2.52-3.6-1.93-5.31,0.03c-2.7,3.09-6.25,3.57-9.47,1.88c-3.91-2.04-4.51-6.35-4.7-10.38
			c-0.1-2.05,1.55-2.91,3.43-2.65C289.22,153.06,291.66,152.08,290.97,146.77z"/>
		<path class="st9" d="M332.51,70.17c-3.6,7.27-9.08,12.73-12.07,19.9c-1.41,3.37-15.59,5.79-18.73,3.8
			c-1.43-0.91-1.21-2.14-0.99-3.51c0.58-3.59-1.09-3.69-3.68-2.3c-3.21,1.72-6.27,3.73-10.24,3.29c-2.74-0.31-3.36-1.61-2.69-4.05
			c1.65-6.02,5.95-9.62,12.21-9.41c3.44,0.12,4.98-2.14,7.03-3.99c1.04-0.94,1.98-3.42,3.57-0.44c0.38,0.7,1.08,0.65,1.73,0.32
			C316.17,69.92,324.87,74.38,332.51,70.17z"/>
		<path class="st10" d="M314.69,141.92c-3.59,1.35-7.21,2.35-11.12,2.33c-3.72-0.02-6.8-0.4-8.12-4.74
			c-0.91-2.99-3.16-3.03-5.45-1.13c-1.02,0.85-2.01,1.73-3.02,2.6c-8.19,1.56-12.3-2.73-10.45-10.81c0.62-2.71,2.56-2.69,4.6-2.6
			c2.84,0.13,5.43,0.08,5.54-3.84c0.03-0.95,0.79-1.99,2.02-1.71c6.56,1.48,12.61-1.56,18.93-2.23c6.72-0.71,7.84-0.31,7.9,6.58
			c0.04,4.32-0.25,8.64,0.19,12.96C315.8,140.35,315.68,141.31,314.69,141.92z"/>
		<path class="st10" d="M324.04,222.07c6.01-0.89,12.26,0.7,18.15-1.97c1.79-0.81,2.63,1.16,3.01,2.56
			c1.46,5.46,2.76,10.96,4.14,16.44c0.44,1.74-0.7,2.36-1.97,2.95c-4.37,2.01-8.94,2.39-13.67,1.85c-2.67-0.31-3.32-2.39-4.27-4.34
			c-1.22-2.51-3.14-3.77-5.48-1.5c-3.08,2.99-6.84,4.57-10.29,2.17c-3.92-2.72-4.8-7.33-3.6-12.09c0.58-0.79,1.45-0.62,2.23-0.59
			c3.77,0.14,7.87,0.66,4.87-5.47C319.98,221.45,322.04,225.81,324.04,222.07z"/>
		<path class="st10" d="M346.99,299.01c-2.43,5.55-6.53,10.01-9.82,15c-2.31,3.51-16.45,6.52-20.15,4.7
			c-1.39-0.69-1.44-1.56-0.88-2.82c0.5-1.14,1.78-2.49,0.49-3.59c-1.37-1.17-2.82,0.14-4.12,0.73c-2.55,1.16-4.81,3.08-7.86,2.84
			c-1.43-0.11-3.17,0.63-4.11-0.96c-0.92-1.56,0.36-2.83,1.07-4.1c0.73-1.31,1.59-2.54,2.39-3.8c1.96-3.16,4.49-5.28,8.51-4.49
			c3.12,0.61,4.95-1.18,6.58-3.4l0.02-0.04c0.22-0.44,0.52-1.21,0.85-1.13c5.47,1.36,10.38-2.91,15.89-1.5
			c2.77,0.71,5.49-0.56,8.23-0.97C346.96,295.07,348.29,295.98,346.99,299.01z"/>
		<path class="st2" d="M474.39,512.92c-4.43,2.42-5.15,2.11-6.87-3.19c-2.56,2.21-5.2,4.09-8.55,4.82
			c-10.56,2.3-18.48-2.91-19.46-13.54c-0.61-6.6-0.29-13.29-0.31-19.94c-0.01-2.21,0.79-4,3.4-4.01c2.64-0.01,3.31,1.75,3.31,4
			c0.01,5.32-0.08,10.65,0.04,15.97c0.18,7.77,3.87,11.81,10.54,11.75c6.58-0.05,11.2-4.74,11.46-11.93
			c0.18-4.98,0.06-9.98,0.04-14.97c-0.01-1.88-0.01-3.79,2.06-4.65c2.04-0.85,3.45,0.43,4.77,1.75c1.36,8.67,0.4,17.39,0.52,26.08
			C475.39,507.65,476.59,510.54,474.39,512.92z"/>
		<path class="st10" d="M278.06,115.9c-2.04-4.35-1.83-8.38,1.73-11.92c2.56-1.01,6.43,0.87,7.65-0.8c2.66-3.65,7.09-2.35,9.89-4.83
			c0.65-0.58,1.45-0.87,2.3-0.77c5.15,0.64,10.2,0.41,15.25-0.97c2.29-0.62,3.14,1.01,2.44,2.93c-0.57,1.58-0.63,3.25-1.23,4.79
			c-1.93,4.47,0.27,10.49-5.13,13.66c-4.49,4.21-9.58,2.41-14.54,1.35c-1.43-0.3-1.62-1.77-2-3.13c-1.16-4.18-2.51-4.79-5.82-1.95
			C285.23,117.17,281.83,117.01,278.06,115.9z"/>
		<path class="st2" d="M536.28,481.93c4.96-4.59,10.15-6.15,16.13-5.18c7.55,1.22,11.99,5.61,12.42,13.31
			c0.38,6.81,0.12,13.65,0.22,20.48c0.03,2.18-0.85,3.68-2.99,3.83c-2.44,0.18-3.64-1.41-3.68-3.73c-0.07-5.5,0.05-11-0.08-16.49
			c-0.17-7.38-3.1-10.92-9.17-11.35c-7.04-0.5-11.69,2.79-12.57,9.86c-0.69,5.58-0.42,11.29-0.47,16.94
			c-0.02,2.33-0.23,4.66-3.08,4.78c-3.2,0.13-3.53-2.38-3.53-4.87c0-8.99-0.03-17.99,0.01-26.98c0.01-2.27-0.35-4.99,2.92-5.44
			C535.43,476.66,536.06,479.02,536.28,481.93z"/>
		<path class="st2" d="M296.59,481.84c5-4.34,10.13-6.09,16.11-5.1c7.44,1.23,11.84,5.27,12.41,12.78
			c0.53,6.96,0.23,13.98,0.31,20.98c0.03,2.4-1.08,3.92-3.52,3.87c-2.56-0.06-3.22-1.93-3.22-4.16c-0.01-5.33,0.1-10.67-0.08-15.99
			c-0.25-7.66-3.31-11.16-9.66-11.44c-7.17-0.31-11.6,3.32-12.29,10.8c-0.49,5.29-0.26,10.65-0.28,15.97
			c-0.01,2.54-0.31,4.96-3.54,4.82c-2.9-0.13-3.09-2.49-3.09-4.78c0.01-9-0.02-17.99,0.01-26.99c0.01-2.27-0.45-4.98,2.81-5.52
			C295.61,476.58,296.28,478.95,296.59,481.84z"/>
		<path class="st5" d="M333.06,466.97c1.2-1.48,2.56-2.7,4.63-1.9c2.09,0.81,2.11,2.69,2.19,4.56c0.33,7.66,0.35,7.66,7.84,7.66
			c1.82,0,3.65-0.09,5.47,0.02c4.69,0.3,5.49,2.23,2.72,6.33c-3.28,1.63-6.77,0.62-10.15,0.74c-5.26,0.19-5.22,0.06-5.3,5.52
			c-0.06,4.32,0.32,8.65-0.23,12.96c2.14,6.3,7.92,7.84,12.52,3.26c1.68-1.67,3.3-4.05,5.7-1.74c2.34,2.26,0.68,4.58-1.08,6.52
			c-6.49,7.13-19.84,4.68-23.25-4.25c-0.35-0.92-0.7-1.83-1.05-2.75c-1.26-4.87-0.56-9.84-0.52-14.75
			C332.62,481.78,331.81,474.35,333.06,466.97z"/>
		<path class="st11" d="M127.64,487.4c0,7.32-0.01,14.64,0.01,21.96c0.01,2.48-0.19,5.01-3.38,5.03c-3.23,0.02-3.37-2.51-3.37-4.99
			c0.02-14.81,0-29.62,0.01-44.43c0-2.4,0.02-5.03,3.32-5.05c3.29-0.02,3.39,2.61,3.39,5.01
			C127.65,472.42,127.63,479.91,127.64,487.4z"/>
		<path class="st12" d="M332.75,580.87c-2.89-6.88-2.89-6.83-11.05-6.9c-3.8-0.03-8.07-0.93-6.94,5.36c0.11,0.6,0,1.41-0.87,1.54
			c-1.12,0.17-1.45-0.64-1.43-1.49c0.09-4.98-0.71-10.01,0.59-14.91c1.23-4.6,4.96-6.9,10.37-6.7c5.1,0.18,8.72,2.65,9.21,7.41
			C333.16,570.35,332.75,575.63,332.75,580.87z"/>
		<path class="st13" d="M278.06,115.9c3.89,0.5,7.48,0.23,10.75-2.48c2.77-2.3,5.36-2.12,5.87,2.16c0.34,2.84,2.05,3.37,4.43,3.61
			c4.05,0.42,7.88-0.95,11.83-1.19c4.31,1.04,5.47,3.8,5.16,8.06c-0.31,4.28-0.57,8.65,0.36,12.94c0.34,1.57-0.11,2.61-1.79,2.92
			c0-6.42,0.05-12.85-0.01-19.27c-0.02-2.35-1.53-2.69-3.44-2.03c-4.78,1.67-9.66,2.25-14.69,1.43c-1.18-0.19-2.31-0.03-3.17,0.97
			c-0.43,0.5-1.22,1.43-1.33,1.36c-5.51-3.55-6.65,6.41-12.45,3.86c-2.32-1.02-2.74,2.96-2.59,5.29c0.23,3.4,0.62,6.84,5,7.4
			c1.63,0.21,3.31,0.05,4.96,0.06c-3.38,1.93-6.82,2.11-9.3-1.1c-2.61-3.38-2.28-7.47-1.05-11.38c0.31-0.97,1.43-1.5,2.44-1.45
			c3.94,0.16,7.38-0.16,7.41-5.42c0-0.74,1.35-1.61,1.89-1.03c3.07,3.26,6.09-0.42,9.22,0.11c-1.91-0.73-3.43-1.63-3.74-3.86
			c-0.59-4.22-2.77-3.84-5.41-1.68C285.16,117.86,281.71,118.14,278.06,115.9z"/>
		<path class="st14" d="M290.39,580.94c0-6.87-0.02-13.74,0.02-20.62c0.01-1.73,1.28-2.18,2.74-2.18c3.65,0,7.33-0.19,10.96,0.13
			c3.88,0.35,5.83,2.82,5.87,6.74c0.05,3.87-1.71,6.3-5.59,7.04c-0.16,0.03-0.33,0.08-0.49,0.08c-3.32,0.09-6.99-0.69-9.86,0.48
			c-3.2,1.31-0.03,5.87-2.11,8.37C291.41,580.97,290.9,580.96,290.39,580.94z"/>
		<path class="st15" d="M198.12,575.9c3.7,2.72,7.18,4.52,11.25,3.94c3.05-0.44,6.23-1.31,6.09-5.24c-0.13-3.73-3.41-3.49-5.98-3.81
			c-1.97-0.25-3.99-0.16-5.96-0.42c-2.7-0.36-4.74-1.72-5.14-4.61c-0.41-2.96,0.94-5.31,3.49-6.62c4.28-2.2,8.68-1.91,12.91,0.31
			c0.97,0.51,2.48,1.33,1.77,2.57c-0.91,1.58-1.94-0.03-2.83-0.53c-3.59-2.02-7.24-2.28-10.96-0.41c-1.63,0.82-2.58,2.26-2.39,4.04
			c0.2,1.92,1.74,2.71,3.53,2.91c3.13,0.35,6.29,0.55,9.41,1.01c2.3,0.34,4.02,1.66,4.5,4.07c0.48,2.42,0,4.61-1.99,6.32
			C210.97,583.59,200.73,581.98,198.12,575.9z"/>
		<path class="st16" d="M286.84,569.86c-0.04,7.04-4.94,11.9-11.97,11.85c-6.86-0.05-11.86-5.19-11.77-12.13
			c0.09-6.96,5.14-11.92,12.04-11.83C282.15,557.85,286.88,562.75,286.84,569.86z"/>
		<path class="st17" d="M465.44,569.98c-0.11,7.09-5.06,11.91-12.05,11.73c-6.94-0.17-11.76-5.25-11.61-12.25
			c0.15-7.02,5.1-11.81,12.12-11.71C460.87,557.84,465.55,562.81,465.44,569.98z"/>
		<path class="st18" d="M412.99,569.67c0-0.67-0.21-1.43,0.04-1.98c1.44-3.19-3.7-9.4,4.41-9.56c11.27-0.22,16.07,2.82,16.5,10.6
			c0.4,7.19-3.23,11.61-10.07,12.26C412.99,582.04,412.99,582.04,412.99,569.67z"/>
		<path class="st19" d="M401.11,559.68c-3.91,1.24-8.01,0.58-11.98,0.48c-3.5-0.09-4.1,1.37-4.1,4.43c0,2.96,0.79,4.27,3.93,4.05
			c3.23-0.22,6.49-0.05,9.75,0.48c-2.59,2.66-5.77,1.56-8.64,1.56c-3.28,0-5.09,0.29-5.12,4.45c-0.03,4.45,2.32,4.2,5.32,4.24
			c3.58,0.04,7.21-0.55,10.79,1.58c-5.7,0-11.4,0.11-17.09-0.08c-1.47-0.05-1.2-1.76-1.2-2.87c-0.03-5.49-0.03-10.97-0.01-16.46
			c0-1.31-0.15-3.13,1.56-3.19c5.6-0.19,11.22-0.07,16.83-0.07C401.14,558.75,401.13,559.21,401.11,559.68z"/>
		<path class="st20" d="M183.39,557.78c7.06-0.04,11.84,4.8,11.82,11.98c-0.01,7.11-4.93,12.04-11.9,11.92
			c-6.87-0.11-11.49-4.8-11.55-11.74C171.71,562.7,176.37,557.82,183.39,557.78z"/>
		<path class="st21" d="M260.02,581.11c-5.35,0-10.7,0-16.04,0c-1.7,0-2.25-0.97-2.24-2.55c0.03-5.82,0.01-11.63,0-17.45
			c0-1.44,0.26-2.83,2-2.86c5.36-0.08,10.72-0.03,16.1,0.6c-2.03,1.99-4.67,0.65-6.68,1.48c-3.08,1.27-9.03-3.98-9.21,3.97
			c-0.19,8.03,5.89,3.01,8.93,4.26c1.37,0.56,3.19-0.28,5.17,1.07c-3.69,2.01-7.18,1.09-10.43,1c-3.37-0.1-3.84,1.37-3.71,4.15
			c0.12,2.55-0.38,4.88,3.66,4.71C251.69,579.29,255.95,578.7,260.02,581.11z"/>
		<path class="st22" d="M358.2,558.32c4.62,2.5-2.55,10.2,5.64,10.24c3.65,0.02,7.74,0.92,10.85-0.41
			c3.64-1.55-0.24-6.77,3.12-10.59c0,8.43,0,15.82,0,23.57c-2.95-1.9-1.6-4.62-1.63-6.76c-0.04-2.82-0.96-4-3.76-3.67
			c-0.66,0.08-1.33-0.01-1.99,0.01c-3.15,0.07-6.83-0.83-9.31,0.5c-2.73,1.47-0.61,5.48-1.23,8.31c-0.16,0.71-0.4,1.23-1.67,1.28
			C358.2,573.38,358.2,565.98,358.2,558.32z"/>
		<path class="st23" d="M152.88,472.34c-2.66-0.54-3.64-2.32-1.96-4.24c3.03-3.48,6.52-6.57,9.93-9.7c0.89-0.81,2.21-0.67,3.22,0.17
			c1.2,0.99,1.48,2.55,0.66,3.57c-3,3.76-6.65,6.89-10.43,9.83C153.94,472.25,153.35,472.22,152.88,472.34z"/>
		<path class="st24" d="M334.02,558.5c7.48,0,14.09,0,21.4,0c-1.57,2.24-3.34,1.87-4.71,1.68c-4.15-0.58-5.03,1.31-4.81,5.05
			c0.3,5.19,0.07,10.41,0.07,15.64c-2.66-0.1-2.26-1.53-2.31-2.57c-0.09-1.82-0.03-3.66-0.03-5.48c-0.01-3.49,0.6-7.12-0.17-10.44
			C342.34,557.56,337.15,562.11,334.02,558.5z"/>
		<path class="st25" d="M217.78,558.62c7.66,0,14.32,0,21.09,0c-0.23,1.69-1.2,1.51-1.92,1.56c-6.98,0.47-6.86,0.47-7.02,7.28
			c-0.11,4.46,0.74,9.01-0.59,13.38c-0.49,0.01-0.98,0.02-1.46,0.03c0-4.78-0.29-9.58,0.08-14.33c0.36-4.67-0.57-7.4-6.01-6.36
			C220.89,560.38,219.63,560.48,217.78,558.62z"/>
		<path class="st9" d="M316.09,104.34c0.24-7.4,0.24-7.37-7.17-5.78c-1.43,0.31-3.05,0.66-4.4,0.31
			c-5.86-1.54-10.43,1.39-15.03,4.12c-3.15,1.87-6.46,0.76-9.7,1c0.58-0.99,1.58-1.36,2.56-1.17c4.97,0.95,7.9-1.33,9.5-6.75
			c1.75,2.9,3.44,4.5,5.7,1.43c0.74-1,2.13-0.81,3.29-0.62c5.04,0.84,9.95,0.19,14.77-1.29c2.82-0.87,3.9-0.16,2.86,2.77
			C317.74,100.38,316.89,102.35,316.09,104.34z"/>
		<path class="st26" d="M346.99,299.01c-0.04-2.13-0.71-3.6-3.24-2.87c-4.67,1.34-9.42,1.3-14.2,0.98
			c-0.49-0.03-1.18-0.14-1.44,0.12c-2.62,2.58-5.78,2.28-8.99,1.85c0.46-2.28,0.88-4.73,3.73-1.76c0.51,0.53,0.87,1.01,1.55,0.61
			c6.7-3.98,14.71-0.06,21.5-3.58c0.84-0.43,2.14-0.43,2.51,0.76C348.91,296.66,348.21,297.98,346.99,299.01z"/>
		<path class="st27" d="M333.06,466.97c0.01,12.32,0.02,24.64,0.02,36.96c-0.82-0.7-1.06-1.64-1.06-2.66
			c-0.01-10.54-0.01-21.09,0-31.63C332.02,468.62,332.24,467.68,333.06,466.97z"/>
		<path class="st28" d="M340.24,502.89c-0.1-5.42-0.06-10.85-0.35-16.26c-0.14-2.64,1.03-2.93,3.19-2.88
			c4.27,0.1,8.56-0.04,12.83-0.09c-1.51,1.91-3.64,1.23-5.55,1.26c-10.66,0.19-9.2-1.38-9.41,9.67
			C340.91,497.36,341.65,500.23,340.24,502.89z"/>
		<path class="st29" d="M474.39,512.92c1.05-11.3,0.19-22.62,0.44-33.93c1.33,1.13,1.1,2.69,1.1,4.15
			c0.02,8.45,0.01,16.91,0.01,25.36C475.94,510.15,476.11,511.86,474.39,512.92z"/>
		<path class="st30" d="M324.04,222.07c-0.84,4.97-3.11,1.93-5.33,0.6c0.68,7.84-5.14,4.65-8.65,5.47c0.86-1.7,2.48-1.35,3.89-1.32
			c2.28,0.05,3.31-0.86,3.12-3.22c-0.3-3.66,1.2-3.81,3.45-1.52C321.85,223.41,322.88,222.41,324.04,222.07z"/>
		<path class="st26" d="M319.09,299.12c-0.58,2.38-2.14,4.07-4.52,3.75c-4.42-0.59-7.63,1.27-10.57,4.13
			c1.18-3.58,3.63-5.62,7.43-5.2C314.54,302.15,316.88,300.98,319.09,299.12z"/>
		<path class="st31" d="M263.91,492.24c-2.81,0-5.63-0.13-8.44,0.03c-3.93,0.22-3.66-1.37-2.04-4c2.66-4.32,6.62-5.71,11.41-5.49
			c4.51,0.21,7.78,2.34,9.97,6.29c1.34,2.41,0.66,3.26-1.97,3.19C269.87,492.18,266.89,492.24,263.91,492.24z"/>
		<path class="st31" d="M143.09,492.25c1.49-5.77,4.82-8.73,10.11-9.39c5.88-0.73,10.49,1.65,12.92,6.35
			c0.9,1.74,1.59,3.09-1.39,3.06C157.64,492.21,150.55,492.25,143.09,492.25z"/>
		<path class="st32" d="M489.49,495.48c0.09-7.76,5.25-12.85,12.89-12.71c7.31,0.13,12.19,5.3,12.19,12.91
			c0,7.69-5.28,13.15-12.65,13.09C494.52,508.72,489.4,503.24,489.49,495.48z"/>
		<path class="st33" d="M322.5,571.96c-0.66,0-1.36,0.15-1.97-0.02c-1.87-0.52-4.8,1.54-5.51-1.37c-0.75-3.03-0.49-6.46,2.18-8.72
			c3.26-2.77,7.12-2.72,10.62-0.63c3.46,2.06,3.32,5.78,3.2,9.31c-0.05,1.42-1.07,1.43-2.07,1.44
			C326.8,571.96,324.65,571.95,322.5,571.96z"/>
		<path class="st34" d="M299.15,570.03c-7,0.03-6.9,0.04-6.52-6.62c0.13-2.28,0.8-3.36,3.19-3.22c2.31,0.13,4.64-0.06,6.95,0.09
			c3.03,0.2,5.02,1.63,4.95,4.97c-0.07,3.3-1.97,4.71-5.09,4.78C301.46,570.05,300.3,570.03,299.15,570.03z"/>
		<path class="st31" d="M284.41,569.52c0.1,5.94-3.61,10.16-9.13,10.38c-5.56,0.23-10.1-4.23-10.16-10
			c-0.06-5.64,3.99-9.91,9.54-10.05C280.34,559.71,284.31,563.65,284.41,569.52z"/>
		<path class="st31" d="M463.32,569.71c0.03,5.77-3.86,10.02-9.33,10.19c-5.54,0.17-9.98-4.38-9.94-10.19
			c0.04-5.72,4.1-9.84,9.7-9.85C459.34,559.85,463.29,563.91,463.32,569.71z"/>
		<path class="st35" d="M415.27,569.34c0-0.33-0.11-0.72,0.02-0.99c1.32-2.68-3.22-7.93,3.65-8.18c8.11-0.29,12.45,2.43,13.03,8.34
			c0.55,5.55-2.32,9.62-7.46,10.58C415.7,580.73,415.27,580.27,415.27,569.34z"/>
		<path class="st31" d="M193.12,569.56c0.08,5.98-3.96,10.34-9.61,10.36c-5.54,0.02-9.49-4.02-9.61-9.81
			c-0.14-6.1,3.74-10.26,9.57-10.27C189.07,559.82,193.04,563.82,193.12,569.56z"/>
	</g>
</g>
</svg>
